<?xml version="1.0" standalone="no"?>
<!DOCTYPE svg PUBLIC "-//W3C//DTD SVG 20010904//EN"
 "http://www.w3.org/TR/2001/REC-SVG-20010904/DTD/svg10.dtd">
<svg version="1.0" xmlns="http://www.w3.org/2000/svg"
 width="500.000000pt" height="500.000000pt" viewBox="0 0 500.000000 500.000000"
 preserveAspectRatio="xMidYMid meet">

<g transform="translate(0.000000,500.000000) scale(0.100000,-0.100000)"
fill="#000000" stroke="none">
<path d="M3478 4495 c-2 -3 -13 -6 -24 -8 -10 -1 -20 -6 -21 -10 -6 -16 -2
-19 12 -7 9 7 18 10 22 6 3 -3 1 -6 -6 -6 -7 0 -9 -5 -5 -12 4 -7 3 -8 -4 -4
-7 4 -12 2 -12 -6 0 -7 -7 -2 -16 10 -8 12 -20 19 -26 16 -7 -5 -5 -12 7 -21
11 -7 14 -13 9 -13 -6 0 -15 5 -22 12 -9 9 -15 8 -27 -8 -42 -54 -45 -76 -45
-371 0 -260 1 -285 16 -279 14 5 15 4 5 -8 -17 -20 -2 -45 46 -82 31 -23 47
-28 93 -29 47 0 63 5 93 28 73 56 72 49 74 369 3 276 2 289 -17 305 -12 11
-16 21 -10 28 5 6 5 17 0 25 -6 8 -10 11 -10 7 0 -4 -11 3 -23 17 -18 19 -27
22 -35 14 -6 -6 -23 -12 -38 -14 -14 -2 -23 0 -20 3 3 4 14 7 24 8 9 0 18 5
19 10 0 6 -3 9 -8 7 -6 -1 -18 2 -28 8 -10 5 -20 7 -23 5z m96 -43 c3 -5 -1
-9 -9 -9 -8 0 -12 4 -9 9 3 4 7 8 9 8 2 0 6 -4 9 -8z m-224 -168 c0 -8 -5 -12
-10 -9 -6 4 -8 11 -5 16 9 14 15 11 15 -7z m138 -586 c-2 -6 -10 -13 -16 -14
-7 -1 -8 0 -2 3 5 2 8 9 4 14 -3 5 0 9 6 9 7 0 10 -5 8 -12z"/>
<path d="M1434 4471 c-32 -20 -61 -51 -47 -51 5 0 9 -9 9 -20 0 -14 -5 -18
-16 -15 -11 3 -18 -1 -20 -12 -1 -10 -3 -147 -4 -305 l-1 -286 31 -39 c18 -21
39 -37 48 -37 8 1 14 -3 13 -9 -3 -15 53 -28 93 -21 19 3 47 13 62 22 21 12
26 22 23 48 -1 21 2 31 8 27 7 -4 8 1 3 13 -5 14 -4 16 4 8 9 -9 9 -17 0 -34
-6 -12 -9 -25 -5 -28 11 -11 36 31 31 51 -2 9 0 15 5 11 5 -3 9 112 9 281 0
261 -2 289 -19 323 -34 66 -63 85 -134 88 -47 2 -71 -2 -93 -15z m83 -8 c0 -8
-6 -9 -16 -4 -9 6 -23 4 -36 -5 -19 -12 -22 -12 -22 0 0 8 6 12 14 9 7 -3 13
-1 13 5 0 5 10 9 23 8 13 0 24 -6 24 -13z m49 1 c-5 -12 -2 -15 11 -10 14 6
15 4 6 -5 -14 -14 -34 -3 -26 16 3 8 7 15 10 15 3 0 2 -7 -1 -16z m89 -74 c3
-5 1 -10 -4 -10 -6 0 -11 5 -11 10 0 6 2 10 4 10 3 0 8 -4 11 -10z m-222 -15
c-3 -9 -8 -14 -10 -11 -3 3 -2 9 2 15 9 16 15 13 8 -4z m7 -620 c0 -5 -5 -3
-10 5 -5 8 -10 20 -10 25 0 6 5 3 10 -5 5 -8 10 -19 10 -25z"/>
<path d="M1020 4233 c-13 -3 -30 -12 -38 -21 -7 -10 -11 -11 -7 -4 8 16 5 15
-36 -5 -47 -24 -104 -63 -91 -63 6 0 9 -7 5 -16 -4 -10 -8 -12 -13 -5 -9 15
-47 -26 -55 -61 -4 -16 -10 -26 -14 -24 -8 5 -23 -30 -40 -93 -10 -33 -12
-386 -13 -1470 0 -1587 -5 -1467 68 -1576 40 -60 85 -97 162 -133 l57 -27
1470 -3 c1114 -2 1481 0 1515 9 99 26 180 82 230 157 62 94 60 39 64 1272 4
1282 -2 1791 -22 1798 -6 2 -10 7 -7 12 8 13 -24 80 -38 79 -9 0 -9 -2 0 -5
12 -5 7 -34 -6 -34 -10 0 -11 39 -1 45 9 5 -7 30 -41 64 -44 44 -115 85 -131
75 -7 -4 -8 -3 -4 4 7 12 -7 16 -51 14 -13 -1 -23 4 -23 11 0 7 -4 6 -10 -3
-5 -8 -10 -10 -10 -4 0 8 -34 12 -100 13 l-100 2 0 -213 c0 -117 -4 -229 -9
-248 -5 -19 -10 -41 -12 -49 -2 -7 -14 -25 -26 -38 -12 -14 -21 -30 -20 -37 1
-6 -3 -10 -9 -9 -7 1 -24 -9 -38 -22 -15 -14 -38 -25 -52 -25 -13 0 -24 -5
-24 -10 0 -6 -3 -9 -7 -9 -5 1 -11 1 -15 0 -26 -7 -110 -2 -120 6 -7 6 -29 19
-48 28 -31 16 -33 16 -21 2 9 -12 10 -17 2 -17 -6 0 -15 10 -20 23 -5 13 -16
28 -24 35 -8 7 -20 26 -27 42 -7 16 -16 27 -21 24 -5 -3 -9 1 -9 8 -1 7 -9 3
-20 -11 -11 -13 -20 -19 -20 -14 0 16 36 44 45 36 4 -5 2 2 -4 15 -8 15 -13
100 -15 245 -2 122 -4 225 -5 230 -1 4 -326 6 -723 5 l-722 -3 -1 -217 c0
-119 3 -214 7 -212 4 3 0 -10 -9 -28 -29 -59 -33 -68 -33 -78 0 -6 5 -8 12 -4
7 4 8 3 4 -5 -4 -6 -12 -9 -17 -5 -12 7 -40 -27 -32 -40 4 -5 1 -6 -5 -2 -6 3
-17 -1 -26 -9 -20 -20 -82 -46 -90 -38 -3 4 -6 1 -6 -5 0 -7 5 -12 10 -12 6 0
10 -5 10 -10 0 -7 -7 -7 -21 1 -12 6 -43 9 -70 7 -27 -1 -50 1 -52 6 -2 5 -15
9 -30 9 -15 0 -27 3 -27 7 0 4 -12 16 -27 25 -28 18 -28 18 -10 -2 9 -11 17
-25 17 -31 0 -7 7 -12 15 -12 8 0 15 -4 15 -10 0 -6 -9 -6 -22 -1 -14 5 -22
15 -20 26 2 10 -5 19 -18 22 -16 4 -19 10 -14 27 6 19 5 20 -11 6 -11 -9 -16
-10 -11 -2 4 7 -5 37 -21 70 -28 57 -28 58 -31 290 -3 187 -6 232 -17 232 -8
0 -17 -4 -20 -10 -3 -5 -12 -10 -18 -10 -7 0 -6 4 3 10 15 10 -139 12 -190 3z
m-117 -73 c-3 -12 -8 -19 -11 -16 -5 6 5 36 12 36 2 0 2 -9 -1 -20z m3190 -5
c4 -8 3 -16 -1 -19 -4 -3 -9 4 -9 15 -2 23 3 25 10 4z m-3163 -5 c0 -5 -5 -10
-11 -10 -5 0 -7 5 -4 10 3 6 8 10 11 10 2 0 4 -4 4 -10z m-133 -122 c-3 -8 -6
-5 -6 6 -1 11 2 17 5 13 3 -3 4 -12 1 -19z m1023 -208 c0 -5 -2 -10 -4 -10 -3
0 -8 5 -11 10 -3 6 -1 10 4 10 6 0 11 -4 11 -10z m1480 -182 c0 -4 -9 1 -20
12 -11 11 -20 23 -20 27 0 3 9 -2 20 -12 11 -10 20 -22 20 -27z m362 -32 c6 4
9 1 7 -5 -7 -19 -24 -14 -26 6 -2 10 0 12 3 5 3 -6 10 -9 16 -6z m-1987 -6
c-3 -5 -12 -10 -18 -10 -7 0 -6 4 3 10 19 12 23 12 15 0z m1580 1 c3 -5 1 -12
-5 -16 -5 -3 -10 1 -10 9 0 18 6 21 15 7z m375 -5 c0 -8 -14 -15 -34 -18 -19
-2 -32 0 -30 4 3 4 16 8 30 8 13 0 24 5 24 10 0 6 2 10 5 10 3 0 5 -6 5 -14z
m-300 -12 c0 -2 -7 -4 -15 -4 -8 0 -15 4 -15 10 0 5 7 7 15 4 8 -4 15 -8 15
-10z m-1695 -4 c-3 -5 -11 -10 -16 -10 -6 0 -7 5 -4 10 3 6 11 10 16 10 6 0 7
-4 4 -10z m35 -4 c0 -2 -7 -7 -16 -10 -8 -3 -12 -2 -9 4 6 10 25 14 25 6z
m473 -541 c-3 -32 16 -65 36 -65 38 0 51 11 51 45 0 46 16 52 35 15 14 -27 14
-33 0 -60 -27 -53 -82 -66 -129 -29 -26 21 -35 65 -20 104 8 21 29 13 27 -10z
m617 -9 c0 -36 10 -48 44 -53 27 -5 46 15 46 48 0 35 16 46 29 20 40 -75 -33
-146 -112 -110 -31 14 -51 68 -37 103 14 37 30 32 30 -8z m278 -185 c-1 -4
-30 -38 -62 -75 -54 -60 -62 -66 -100 -67 -40 -2 -40 -2 -8 -8 l33 -6 -30 -35
c-31 -37 -37 -34 -44 25 -3 27 -7 30 -38 27 -19 -2 -51 4 -71 12 -50 21 -162
22 -217 2 -24 -9 -64 -17 -90 -17 l-46 -2 40 -6 c37 -6 38 -7 19 -18 -11 -7
-32 -28 -45 -47 -13 -20 -29 -36 -35 -36 -23 0 -36 -201 -21 -317 l9 -63 -185
1 -185 0 -13 32 c-11 30 -29 433 -20 443 2 2 101 5 220 6 155 2 179 3 84 5
l-133 4 -2 32 -1 32 -4 -32 -4 -33 -80 0 -79 0 0 75 0 75 556 0 c308 0 554 -4
552 -9z m-223 -162 c12 -19 -5 -23 -22 -6 -16 16 -16 17 -1 17 9 0 20 -5 23
-11z m-435 -531 c61 -69 130 -101 219 -100 36 1 82 6 101 11 50 16 123 68 144
105 l18 31 71 -76 c153 -160 160 -169 142 -189 -23 -26 -123 -77 -197 -101
-121 -39 -464 -35 -494 6 -9 12 -13 13 -16 3 -10 -28 -238 89 -238 122 0 5 26
11 58 13 52 3 50 3 -20 5 -76 2 -76 2 -107 41 -35 44 -91 146 -91 166 0 11 38
14 183 14 l182 1 45 -52z m1243 -728 c102 -70 102 -210 0 -280 l-37 -25 -1091
0 -1091 0 -41 27 c-117 77 -90 257 45 298 15 5 511 8 1103 7 l1075 -2 37 -25z"/>
<path d="M2092 2568 c-2 -102 -3 -107 -24 -111 l-23 -4 22 -2 c21 -1 22 -6 26
-98 l3 -98 2 97 2 97 28 4 27 4 -27 2 -27 1 -4 108 -3 107 -2 -107z"/>
<path d="M1958 2453 c12 -2 30 -2 40 0 9 3 -1 5 -23 4 -22 0 -30 -2 -17 -4z"/>
<path d="M2233 2453 c15 -2 37 -2 50 0 12 2 0 4 -28 4 -27 0 -38 -2 -22 -4z"/>
<path d="M2173 2375 c-32 -36 -1 -95 50 -95 46 0 66 57 34 98 -13 16 -69 15
-84 -3z"/>
<path d="M2090 2169 c0 -5 5 -7 10 -4 6 3 10 8 10 11 0 2 -4 4 -10 4 -5 0 -10
-5 -10 -11z"/>
<path d="M2343 2080 c0 -30 2 -43 4 -27 2 15 2 39 0 55 -2 15 -4 2 -4 -28z"/>
<path d="M2102 2080 c0 -14 2 -19 5 -12 2 6 2 18 0 25 -3 6 -5 1 -5 -13z"/>
<path d="M2353 1973 c9 -2 23 -2 30 0 6 3 -1 5 -18 5 -16 0 -22 -2 -12 -5z"/>
<path d="M2438 1973 c23 -2 61 -2 85 0 23 2 4 4 -43 4 -47 0 -66 -2 -42 -4z"/>
<path d="M2598 1958 c5 -18 7 -19 10 -6 2 10 15 18 35 21 28 3 26 4 -10 5 -38
2 -41 0 -35 -20z"/>
<path d="M2763 1973 c15 -2 37 -2 50 0 12 2 0 4 -28 4 -27 0 -38 -2 -22 -4z"/>
<path d="M2927 1973 c18 -2 50 -2 70 0 21 2 7 4 -32 4 -38 0 -55 -2 -38 -4z"/>
<path d="M2362 1905 c0 -16 2 -22 5 -12 2 9 2 23 0 30 -3 6 -5 -1 -5 -18z"/>
<path d="M2611 1904 c0 -11 3 -14 6 -6 3 7 2 16 -1 19 -3 4 -6 -2 -5 -13z"/>
<path d="M2621 1864 c0 -11 3 -14 6 -6 3 7 2 16 -1 19 -3 4 -6 -2 -5 -13z"/>
<path d="M362 3918 c-7 -7 -12 -8 -12 -3 0 5 -7 0 -16 -11 -8 -10 -12 -12 -8
-4 5 9 -1 8 -15 -5 -54 -47 -51 35 -51 -1488 0 -778 3 -1442 6 -1475 4 -34 11
-59 15 -56 5 3 6 -1 3 -9 -7 -20 15 -99 26 -92 4 3 6 -5 2 -17 -3 -11 -1 -19
4 -16 5 4 10 -5 10 -18 3 -37 23 -57 42 -42 13 11 14 10 3 -10 -10 -20 -10
-28 6 -50 9 -15 16 -30 15 -34 -2 -8 14 -12 31 -9 5 1 5 -4 1 -10 -4 -7 1 -18
11 -26 11 -7 15 -13 10 -13 -5 0 16 -24 47 -52 82 -77 108 -98 123 -98 7 0 15
-3 17 -7 5 -11 97 -55 173 -82 83 -29 181 -31 1680 -31 1469 0 1696 4 1681 29
-2 3 10 6 28 7 37 1 120 37 109 48 -4 4 0 4 10 0 9 -3 17 -2 17 3 0 5 6 10 13
10 18 0 107 61 107 74 0 6 4 8 8 5 5 -3 37 24 71 59 34 36 60 65 56 65 -3 0 4
10 15 23 23 23 73 117 67 123 -2 2 -12 -14 -23 -36 -10 -22 -23 -40 -27 -40
-5 0 1 16 13 35 12 19 18 40 14 46 -4 7 -3 9 4 5 12 -7 45 22 37 34 -3 5 0 10
6 12 7 2 13 13 13 24 1 11 5 24 9 31 4 6 11 42 17 79 13 95 14 2924 0 2924 -5
0 -10 -7 -10 -16 0 -8 -4 -12 -10 -9 -5 3 -10 13 -10 21 0 8 5 12 10 9 6 -3
13 1 16 10 8 20 -25 58 -44 50 -10 -4 -12 0 -8 10 3 9 2 14 -3 11 -4 -3 -17 1
-27 9 -40 30 -117 6 -158 -48 l-26 -34 0 -1432 c1 -905 4 -1430 10 -1426 6 3
7 -1 4 -9 -3 -9 -11 -13 -16 -9 -7 4 -9 -4 -6 -21 3 -14 1 -29 -4 -32 -5 -3
-6 -15 -2 -26 4 -13 2 -18 -4 -14 -10 6 -27 -39 -23 -61 1 -7 -3 -13 -8 -13
-6 0 -15 -10 -22 -21 -9 -17 -8 -24 2 -31 11 -8 11 -9 -1 -5 -8 2 -34 -14 -56
-37 -35 -34 -39 -42 -28 -54 15 -14 9 -36 -7 -26 -5 3 -7 9 -4 14 3 4 -2 11
-11 14 -8 3 -12 2 -9 -4 3 -6 1 -10 -6 -10 -7 0 -21 -8 -31 -17 -10 -9 -28
-18 -39 -20 -11 -2 -33 -13 -48 -24 -16 -12 -34 -18 -40 -15 -6 4 -11 3 -11
-3 0 -6 -7 -7 -17 -4 -10 4 -14 2 -9 -5 3 -6 2 -14 -4 -17 -6 -4 -9 -2 -8 4 5
17 -3040 15 -3060 -2 -13 -9 -14 -9 -8 0 5 10 -1 11 -26 7 -27 -5 -30 -3 -18
6 13 10 12 11 -3 6 -11 -3 -24 -3 -30 1 -7 4 -16 9 -22 10 -68 16 -89 24 -104
37 -9 8 -25 15 -36 15 -45 0 -90 17 -93 36 -2 11 -6 27 -9 35 -3 8 -5 21 -4
27 1 7 -7 13 -19 13 -11 0 -20 5 -20 11 0 5 5 7 10 4 6 -3 10 -1 10 4 0 6 -7
11 -16 11 -8 0 -13 4 -10 9 3 4 -3 26 -13 47 -11 22 -22 57 -26 78 -5 27 -10
34 -16 24 -6 -8 -7 10 -3 45 5 42 4 57 -6 57 -8 0 -9 4 -3 13 11 14 10 2771
-2 2806 -3 12 -11 19 -16 16 -5 -3 -6 0 -3 8 6 16 -53 70 -67 61 -5 -3 -9 -1
-9 3 0 14 -64 15 -78 1z m58 -21 c0 -8 -3 -7 -9 2 -7 11 -11 10 -20 -5 -6 -11
-11 -14 -11 -8 0 14 22 34 32 28 4 -3 8 -11 8 -17z m4233 0 c4 3 7 -1 7 -10 0
-33 -31 -13 -37 23 -1 12 1 11 11 -2 7 -10 16 -15 19 -11z m-93 -3 c0 -8 -19
-13 -24 -6 -3 5 1 9 9 9 8 0 15 -2 15 -3z m155 -164 c3 -5 1 -10 -4 -10 -6 0
-11 5 -11 10 0 6 2 10 4 10 3 0 8 -4 11 -10z m-244 -2923 c-10 -9 -11 -8 -5 6
3 10 9 15 12 12 3 -3 0 -11 -7 -18z m-34 -39 c-3 -8 -6 -5 -6 6 -1 11 2 17 5
13 3 -3 4 -12 1 -19z m-43 -57 c7 -10 -14 -27 -31 -27 -7 1 -12 5 -10 11 1 5
11 8 22 7 17 -2 17 -1 5 7 -9 7 -10 11 -3 11 6 0 14 -4 17 -9z m-3799 -20 c-3
-6 -11 -11 -16 -11 -5 0 -4 6 3 14 14 16 24 13 13 -3z m4003 -29 c2 -7 -2 -10
-12 -6 -10 4 -16 1 -16 -7 0 -7 -2 -10 -5 -7 -3 3 -3 13 1 22 7 18 25 17 32
-2z m-16 -54 c-5 -21 -4 -22 14 -8 18 14 18 14 5 -2 -7 -10 -17 -15 -22 -12
-12 7 -12 44 0 44 5 0 7 -10 3 -22z m-19 -17 c3 -14 1 -18 -9 -14 -8 3 -14 11
-14 19 0 21 17 17 23 -5z m-4109 -7 c3 -8 2 -12 -4 -9 -6 3 -10 10 -10 16 0
14 7 11 14 -7z m206 -14 c0 -5 -4 -10 -10 -10 -5 0 -10 5 -10 10 0 6 5 10 10
10 6 0 10 -4 10 -10z m3540 6 c0 -2 -7 -7 -16 -10 -8 -3 -12 -2 -9 4 6 10 25
14 25 6z m28 -14 c-10 -2 -18 -8 -18 -13 0 -5 -5 -9 -10 -9 -6 0 -6 7 2 19 7
12 18 17 27 13 14 -6 14 -7 -1 -10z m-3518 -6 c0 -9 -30 -14 -35 -6 -4 6 3 10
14 10 12 0 21 -2 21 -4z m162 -11 c0 -5 -5 -10 -11 -11 -8 -2 -7 -1 0 3 8 4 7
8 -2 15 -11 8 -11 9 -1 6 8 -2 14 -8 14 -13z m3293 -8 c-11 -6 -31 -12 -43
-12 -22 -1 -22 0 -6 12 10 7 29 13 43 13 25 -1 25 -1 6 -13z m-3617 -42 c-6
-13 -15 -22 -19 -19 -5 2 -1 14 9 24 22 26 24 25 10 -5z m3957 -3 c-3 -3 -11
0 -18 7 -9 10 -8 11 6 5 10 -3 15 -9 12 -12z m-165 -62 c0 -5 -5 -10 -11 -10
-5 0 -7 5 -4 10 3 6 8 10 11 10 2 0 4 -4 4 -10z m-62 -87 c-6 -7 -12 -13 -13
-13 -2 0 -5 6 -8 13 -3 7 3 13 14 13 13 0 15 -3 7 -13z m-3488 -17 c0 -11 -19
-15 -25 -6 -3 5 1 10 9 10 9 0 16 -2 16 -4z m3395 -6 c3 -5 1 -10 -4 -10 -6 0
-11 5 -11 10 0 6 2 10 4 10 3 0 8 -4 11 -10z"/>
<path d="M658 688 c7 -7 12 -22 12 -35 0 -17 6 -23 21 -23 11 0 30 -5 42 -11
21 -10 21 -10 3 5 -11 9 -25 16 -32 16 -7 0 -16 5 -20 12 -5 8 -2 9 11 5 13
-6 12 -1 -6 18 -13 13 -28 25 -33 25 -6 0 -5 -5 2 -12z"/>
</g>
</svg>
