<svg version="1.1" id="Layer_1" xmlns="http://www.w3.org/2000/svg" xmlns:xlink="http://www.w3.org/1999/xlink" x="0px" y="0px"
	 width="100%" viewBox="0 0 1024 1024" enable-background="new 0 0 1024 1024" xml:space="preserve">
<path fill="#323A42" opacity="1.000000" stroke="none" 
	d="
M1.000010,968.000000 
	C1.000000,664.303955 1.000000,360.607941 1.344401,56.309578 
	C1.987234,54.591751 2.304526,53.480907 2.581326,52.360065 
	C8.749104,27.384966 24.395145,11.372817 48.719070,3.571182 
	C51.471157,2.688479 54.239300,1.855850 57.000000,1.000000 
	C359.029388,1.000000 661.058777,1.000000 963.939331,1.000497 
	C967.540161,1.587391 970.302917,2.118193 973.037170,2.768786 
	C1000.297363,9.255025 1017.008606,26.270094 1023.549500,53.425705 
	C1023.999023,55.291985 1024.515015,57.142265 1025.000000,58.999992 
	C1025.000000,362.029388 1025.000000,665.058777 1024.658447,968.696045 
	C1021.084351,985.803223 1013.617249,999.812927 1000.330994,1010.478882 
	C990.521545,1018.353699 979.143494,1022.531921 967.000000,1025.000000 
	C663.970642,1025.000000 360.941284,1025.000000 57.257919,1024.682617 
	C26.721344,1018.276917 8.441520,1000.465942 2.145522,970.513855 
	C1.960683,969.634460 1.390525,968.836121 1.000010,968.000000 
M820.179932,472.782745 
	C819.943848,472.191284 819.707703,471.599823 819.235901,470.156738 
	C818.617432,466.046417 818.323486,461.855927 817.330383,457.838196 
	C807.066040,416.310669 782.312378,387.128754 741.226257,374.612396 
	C700.496216,362.204590 663.581055,371.717102 631.755127,400.149811 
	C625.443909,405.788116 625.555420,405.912933 628.998779,414.287170 
	C626.991699,421.765533 621.526062,426.408386 615.140259,430.091705 
	C610.810364,423.188934 606.981506,415.905365 602.070557,409.444214 
	C566.261902,362.331451 500.049255,351.428192 450.826996,384.179749 
	C432.841797,396.146759 419.999054,412.395081 409.764832,430.834229 
	C405.127228,425.790588 400.489624,420.746918 395.991913,415.024658 
	C396.889160,413.430298 397.614044,411.702850 398.720673,410.270264 
	C400.807220,407.569031 400.045044,405.623566 397.811584,403.406464 
	C374.921936,380.684326 347.345154,368.624756 315.148193,369.478668 
	C262.220123,370.882385 219.854111,406.480103 208.770493,458.396545 
	C206.729004,467.959015 207.518188,478.125763 207.034653,488.731171 
	C207.820801,490.294861 209.693176,492.464050 209.214554,493.322754 
	C206.378738,498.410431 209.277603,502.924927 209.206650,507.804138 
	C205.980011,507.531036 204.057877,508.906403 202.680344,511.944855 
	C187.892532,544.562317 172.914597,577.093689 158.156586,609.724548 
	C153.358627,620.333130 159.180145,628.864380 170.805405,628.861694 
	C366.938782,628.816406 563.072144,628.776367 759.205505,628.733337 
	C791.200073,628.726318 823.194702,628.737366 855.189209,628.684509 
	C866.738342,628.665466 872.047974,620.555176 867.647766,609.834534 
	C867.268433,608.910339 866.841980,608.005310 866.429382,607.095093 
	C852.056213,575.390320 837.634460,543.707275 823.383667,511.947571 
	C822.005127,508.875305 820.186340,507.524292 817.000916,506.913391 
	C819.039917,501.293884 819.026489,495.982391 814.842590,492.530609 
	C816.832581,490.388611 818.293945,488.815613 819.614990,486.415466 
	C819.675354,481.974670 819.735779,477.533875 820.179932,472.782745 
M480.396088,236.860535 
	C463.593903,247.541306 453.593445,262.685791 451.682007,282.537079 
	C449.172638,308.598450 459.426666,328.733734 481.763794,342.283173 
	C502.858032,355.078674 530.502930,353.644409 549.959656,338.484497 
	C570.451660,322.517944 578.835999,301.362976 573.261414,275.728912 
	C564.459961,235.256760 518.015015,214.619888 480.396088,236.860535 
M263.319000,265.829620 
	C257.576477,276.938171 255.432022,288.681854 256.746979,301.138458 
	C260.361450,335.378723 292.035645,359.887939 326.162140,354.754486 
	C360.652435,349.566315 384.081085,316.904358 377.539764,283.128784 
	C372.713196,258.207214 352.550537,238.569824 327.400330,234.295563 
	C302.012573,229.980927 276.765717,242.229080 263.319000,265.829620 
M760.913391,326.388397 
	C768.380371,313.922760 771.019714,300.461731 769.256042,286.081757 
	C766.124756,260.551605 746.832886,239.951904 721.328735,234.926010 
	C694.731201,229.684677 668.197754,241.692062 655.327698,264.793793 
	C642.761414,287.350525 646.065979,316.364288 663.095215,335.135620 
	C689.705322,364.467804 738.548889,361.627808 760.913391,326.388397 
M291.995117,674.500000 
	C291.993042,667.171570 292.139099,659.837708 291.867157,652.519287 
	C291.811035,651.008301 290.245178,648.305908 289.295441,648.270020 
	C280.530823,647.939941 271.748718,648.075317 262.968994,648.075317 
	C262.968994,675.308350 262.969269,701.912964 262.968903,728.517578 
	C262.968628,748.670715 262.945648,768.823853 262.979340,788.976929 
	C262.990234,795.493408 265.530090,797.953979 272.081848,798.002808 
	C275.412750,798.027710 278.744019,798.010376 282.075073,798.001038 
	C290.147522,797.978516 291.994202,796.122192 291.995636,787.924377 
	C292.002258,750.449585 291.995941,712.974792 291.995117,674.500000 
M750.420532,798.002563 
	C760.056580,798.004272 762.960510,796.168823 762.971436,789.347595 
	C763.044678,743.715271 762.981323,698.082764 763.065979,652.450500 
	C763.072693,648.814392 761.535461,647.878662 758.251587,647.964966 
	C752.260193,648.122498 746.237244,648.351746 740.273621,647.917480 
	C735.059875,647.537781 733.878296,649.500610 733.899414,654.450928 
	C734.081055,697.084900 734.154297,739.720764 733.920898,782.354187 
	C733.840271,797.079773 734.948914,798.594604 750.420532,798.002563 
M987.016479,995.523193 
	C988.004089,997.127136 988.991760,998.731140 989.979431,1000.335083 
	C989.257996,999.443848 988.536560,998.552612 987.815125,997.661377 
	C991.262329,994.373108 994.709534,991.084900 998.156738,987.796692 
	C998.000427,989.270081 997.844116,990.743469 997.687866,992.216858 
	C994.368652,988.802002 991.049500,985.387085 987.730286,981.972229 
	C989.324463,982.167969 990.918701,982.363708 992.512878,982.559448 
	C988.994324,985.773132 985.475708,988.986755 981.957153,992.200439 
	C981.294739,991.466125 980.632324,990.731873 979.969910,989.997559 
	C982.165344,991.658386 984.360718,993.319214 987.016479,995.523193 
z"/>
<path fill="#FBFCFC" opacity="1.000000" stroke="none" 
	d="
M1025.000000,58.531334 
	C1024.515015,57.142265 1023.999023,55.291985 1023.549500,53.425705 
	C1017.008606,26.270094 1000.297363,9.255025 973.037170,2.768786 
	C970.302917,2.118193 967.540161,1.587391 964.395264,1.000497 
	C984.258301,1.000000 1004.516602,1.000000 1025.000000,1.000000 
	C1025.000000,20.020302 1025.000000,39.041492 1025.000000,58.531334 
z"/>
<path fill="#FBFCFC" opacity="1.000000" stroke="none" 
	d="
M967.468628,1025.000000 
	C979.143494,1022.531921 990.521545,1018.353699 1000.330994,1010.478882 
	C1013.617249,999.812927 1021.084351,985.803223 1024.658447,969.151978 
	C1025.000000,987.594727 1025.000000,1006.189453 1025.000000,1025.000000 
	C1005.979675,1025.000000 986.958496,1025.000000 967.468628,1025.000000 
z"/>
<path fill="#FBFCFC" opacity="1.000000" stroke="none" 
	d="
M1.000010,968.468628 
	C1.390525,968.836121 1.960683,969.634460 2.145522,970.513855 
	C8.441520,1000.465942 26.721344,1018.276917 56.801968,1024.682617 
	C38.405895,1025.000000 19.811790,1025.000000 1.000000,1025.000000 
	C1.000000,1006.312988 1.000000,987.625183 1.000010,968.468628 
z"/>
<path fill="#FBFCFC" opacity="1.000000" stroke="none" 
	d="
M56.531342,1.000000 
	C54.239300,1.855850 51.471157,2.688479 48.719070,3.571182 
	C24.395145,11.372817 8.749104,27.384966 2.581326,52.360065 
	C2.304526,53.480907 1.987234,54.591751 1.344401,55.853626 
	C1.000000,37.739223 1.000000,19.478447 1.000000,1.000000 
	C19.353655,1.000000 37.708168,1.000000 56.531342,1.000000 
z"/>
<path fill="#E65A5D" opacity="1.000000" stroke="none" 
	d="
M817.000366,507.677185 
	C820.186340,507.524292 822.005127,508.875305 823.383667,511.947571 
	C837.634460,543.707275 852.056213,575.390320 866.429382,607.095093 
	C866.841980,608.005310 867.268433,608.910339 867.647766,609.834534 
	C872.047974,620.555176 866.738342,628.665466 855.189209,628.684509 
	C823.194702,628.737366 791.200073,628.726318 759.205505,628.733337 
	C563.072144,628.776367 366.938782,628.816406 170.805405,628.861694 
	C159.180145,628.864380 153.358627,620.333130 158.156586,609.724548 
	C172.914597,577.093689 187.892532,544.562317 202.680344,511.944855 
	C204.057877,508.906403 205.980011,507.531036 210.067413,507.800018 
	C212.593307,507.823700 214.258438,507.875702 215.923553,507.875824 
	C414.621674,507.889465 613.319763,507.899872 812.017883,507.899780 
	C813.678711,507.899780 815.339539,507.754578 817.000366,507.677185 
z"/>
<path fill="#47D2CF" opacity="1.000000" stroke="none" 
	d="
M410.260925,431.379913 
	C419.999054,412.395081 432.841797,396.146759 450.826996,384.179749 
	C500.049255,351.428192 566.261902,362.331451 602.070557,409.444214 
	C606.981506,415.905365 610.810364,423.188934 615.457764,430.701965 
	C622.849609,447.370331 626.863220,463.993225 626.125122,481.723206 
	C625.911987,486.843628 624.279602,488.008545 619.394775,487.998230 
	C548.268799,487.847931 477.142303,487.896790 406.015930,487.898163 
	C404.411438,487.898193 402.806946,487.898163 401.153198,487.898163 
	C400.856476,486.098358 400.617493,484.968689 400.495056,483.826569 
	C400.335602,482.339020 400.232056,480.843140 400.167480,479.348114 
	C399.439514,462.498901 403.958832,446.751312 410.260925,431.379913 
z"/>
<path fill="#3A90D4" opacity="1.000000" stroke="none" 
	d="
M207.000809,488.013611 
	C207.518188,478.125763 206.729004,467.959015 208.770493,458.396545 
	C219.854111,406.480103 262.220123,370.882385 315.148193,369.478668 
	C347.345154,368.624756 374.921936,380.684326 397.811584,403.406464 
	C400.045044,405.623566 400.807220,407.569031 398.720673,410.270264 
	C397.614044,411.702850 396.889160,413.430298 395.673950,415.621094 
	C383.514740,438.487335 378.920593,462.315887 380.354065,487.950317 
	C376.791260,487.950317 373.509735,487.945862 370.228210,487.950989 
	C333.818390,488.007812 297.408569,488.066193 260.602417,488.055847 
	C259.138031,488.030975 258.069977,488.074432 256.537170,488.052368 
	C248.638382,488.062317 241.204300,488.137787 233.410919,488.128113 
	C229.437103,488.104401 225.822617,488.165894 221.746704,488.165649 
	C216.523804,488.073822 211.762299,488.043732 207.000809,488.013611 
z"/>
<path fill="#46D2CE" opacity="1.000000" stroke="none" 
	d="
M629.139832,413.491638 
	C625.555420,405.912933 625.443909,405.788116 631.755127,400.149811 
	C663.581055,371.717102 700.496216,362.204590 741.226257,374.612396 
	C782.312378,387.128754 807.066040,416.310669 817.330383,457.838196 
	C818.323486,461.855927 818.617432,466.046417 819.292725,470.850769 
	C819.498474,472.060883 819.647339,472.576965 819.796204,473.093079 
	C819.735779,477.533875 819.675354,481.974670 819.257812,486.986389 
	C817.742004,487.650970 816.583496,487.825623 815.424866,487.826691 
	C760.280396,487.877716 705.135925,487.916626 649.991455,487.933197 
	C648.725220,487.933563 647.458801,487.662567 646.185608,487.517395 
	C646.185608,484.480438 646.189819,481.827026 646.185059,479.173645 
	C646.142822,455.816315 640.826599,433.827271 629.139832,413.491638 
z"/>
<path fill="#30383F" opacity="1.000000" stroke="none" 
	d="
M629.069336,413.889404 
	C640.826599,433.827271 646.142822,455.816315 646.185059,479.173645 
	C646.189819,481.827026 646.185608,484.480438 646.185608,487.517395 
	C647.458801,487.662567 648.725220,487.933563 649.991455,487.933197 
	C705.135925,487.916626 760.280396,487.877716 815.424866,487.826691 
	C816.583496,487.825623 817.742004,487.650970 819.327942,487.399963 
	C818.293945,488.815613 816.832581,490.388611 814.842590,492.530609 
	C819.026489,495.982391 819.039917,501.293884 817.000610,507.295288 
	C815.339539,507.754578 813.678711,507.899780 812.017883,507.899780 
	C613.319763,507.899872 414.621674,507.889465 215.923553,507.875824 
	C214.258438,507.875702 212.593307,507.823700 210.465485,507.719299 
	C209.277603,502.924927 206.378738,498.410431 209.214554,493.322754 
	C209.693176,492.464050 207.820801,490.294861 207.017731,488.372406 
	C211.762299,488.043732 216.523804,488.073822 221.648895,488.601379 
	C222.174210,490.884583 222.285583,494.218964 222.505066,494.226105 
	C226.468201,494.354889 230.444366,494.082275 234.417755,493.895416 
	C234.201904,492.001373 233.986069,490.107330 233.770233,488.213257 
	C241.204300,488.137787 248.638382,488.062317 256.643524,488.355377 
	C258.475983,488.523987 259.737366,488.324036 260.998749,488.124146 
	C297.408569,488.066193 333.818390,488.007812 370.228210,487.950989 
	C373.509735,487.945862 376.791260,487.950317 380.354065,487.950317 
	C378.920593,462.315887 383.514740,438.487335 395.604004,415.960388 
	C400.489624,420.746918 405.127228,425.790588 410.012878,431.107056 
	C403.958832,446.751312 399.439514,462.498901 400.167480,479.348114 
	C400.232056,480.843140 400.335602,482.339020 400.495056,483.826569 
	C400.617493,484.968689 400.856476,486.098358 401.153198,487.898163 
	C402.806946,487.898163 404.411438,487.898193 406.015930,487.898163 
	C477.142303,487.896790 548.268799,487.847931 619.394775,487.998230 
	C624.279602,488.008545 625.911987,486.843628 626.125122,481.723206 
	C626.863220,463.993225 622.849609,447.370331 615.676941,430.984192 
	C621.526062,426.408386 626.991699,421.765533 629.069336,413.889404 
z"/>
<path fill="#EDCCA3" opacity="1.000000" stroke="none" 
	d="
M480.706787,236.668945 
	C518.015015,214.619888 564.459961,235.256760 573.261414,275.728912 
	C578.835999,301.362976 570.451660,322.517944 549.959656,338.484497 
	C530.502930,353.644409 502.858032,355.078674 481.763794,342.283173 
	C459.426666,328.733734 449.172638,308.598450 451.682007,282.537079 
	C453.593445,262.685791 463.593903,247.541306 480.706787,236.668945 
z"/>
<path fill="#EDCBA4" opacity="1.000000" stroke="none" 
	d="
M263.510681,265.513672 
	C276.765717,242.229080 302.012573,229.980927 327.400330,234.295563 
	C352.550537,238.569824 372.713196,258.207214 377.539764,283.128784 
	C384.081085,316.904358 360.652435,349.566315 326.162140,354.754486 
	C292.035645,359.887939 260.361450,335.378723 256.746979,301.138458 
	C255.432022,288.681854 257.576477,276.938171 263.510681,265.513672 
z"/>
<path fill="#EDCCA4" opacity="1.000000" stroke="none" 
	d="
M760.712036,326.688751 
	C738.548889,361.627808 689.705322,364.467804 663.095215,335.135620 
	C646.065979,316.364288 642.761414,287.350525 655.327698,264.793793 
	C668.197754,241.692062 694.731201,229.684677 721.328735,234.926010 
	C746.832886,239.951904 766.124756,260.551605 769.256042,286.081757 
	C771.019714,300.461731 768.380371,313.922760 760.712036,326.688751 
z"/>
<path fill="#4A525A" opacity="1.000000" stroke="none" 
	d="
M291.994690,675.000000 
	C291.995941,712.974792 292.002258,750.449585 291.995636,787.924377 
	C291.994202,796.122192 290.147522,797.978516 282.075073,798.001038 
	C278.744019,798.010376 275.412750,798.027710 272.081848,798.002808 
	C265.530090,797.953979 262.990234,795.493408 262.979340,788.976929 
	C262.945648,768.823853 262.968628,748.670715 262.968903,728.517578 
	C262.969269,701.912964 262.968994,675.308350 262.968994,648.075317 
	C271.748718,648.075317 280.530823,647.939941 289.295441,648.270020 
	C290.245178,648.305908 291.811035,651.008301 291.867157,652.519287 
	C292.139099,659.837708 291.993042,667.171570 291.994690,675.000000 
z"/>
<path fill="#4A5259" opacity="1.000000" stroke="none" 
	d="
M749.940002,798.002502 
	C734.948914,798.594604 733.840271,797.079773 733.920898,782.354187 
	C734.154297,739.720764 734.081055,697.084900 733.899414,654.450928 
	C733.878296,649.500610 735.059875,647.537781 740.273621,647.917480 
	C746.237244,648.351746 752.260193,648.122498 758.251587,647.964966 
	C761.535461,647.878662 763.072693,648.814392 763.065979,652.450500 
	C762.981323,698.082764 763.044678,743.715271 762.971436,789.347595 
	C762.960510,796.168823 760.056580,798.004272 749.940002,798.002502 
z"/>
<path fill="#93979C" opacity="1.000000" stroke="none" 
	d="
M986.786316,995.251587 
	C984.360718,993.319214 982.165344,991.658386 979.969910,989.997559 
	C980.632324,990.731873 981.294739,991.466125 981.957153,992.200439 
	C985.475708,988.986755 988.994324,985.773132 992.512878,982.559448 
	C990.918701,982.363708 989.324463,982.167969 987.730286,981.972229 
	C991.049500,985.387085 994.368652,988.802002 997.687866,992.216858 
	C997.844116,990.743469 998.000427,989.270081 998.156738,987.796692 
	C994.709534,991.084900 991.262329,994.373108 987.815125,997.661377 
	C988.536560,998.552612 989.257996,999.443848 989.979431,1000.335083 
	C988.991760,998.731140 988.004089,997.127136 986.786316,995.251587 
z"/>
<path fill="#30383F" opacity="1.000000" stroke="none" 
	d="
M819.988037,472.937927 
	C819.647339,472.576965 819.498474,472.060883 819.410645,471.276550 
	C819.707703,471.599823 819.943848,472.191284 819.988037,472.937927 
z"/>
<path fill="#323A42" opacity="1.000000" stroke="none" 
	d="
M233.410904,488.128113 
	C233.986069,490.107330 234.201904,492.001373 234.417755,493.895416 
	C230.444366,494.082275 226.468201,494.354889 222.505066,494.226105 
	C222.285583,494.218964 222.174210,490.884583 222.110321,488.663116 
	C225.822617,488.165894 229.437103,488.104401 233.410904,488.128113 
z"/>
<path fill="#323A42" opacity="1.000000" stroke="none" 
	d="
M260.602417,488.055817 
	C259.737366,488.324036 258.475983,488.523987 257.108246,488.420898 
	C258.069977,488.074432 259.138031,488.030975 260.602417,488.055817 
z"/>
</svg>