<svg version="1.1" id="Layer_1" xmlns="http://www.w3.org/2000/svg" xmlns:xlink="http://www.w3.org/1999/xlink" x="0px" y="0px"
	 width="100%" viewBox="0 0 1024 1024" enable-background="new 0 0 1024 1024" xml:space="preserve">
<path fill="#FEFFFF" opacity="1.000000" stroke="none" 
	d="
M1025.000000,458.000000 
	C1025.000000,513.687561 1025.000000,569.375122 1024.531372,625.534180 
	C1006.436279,625.994751 988.809753,625.983826 971.100586,625.512451 
	C971.007935,622.385681 970.993042,619.719421 970.988586,617.053162 
	C970.930908,582.394104 970.874695,547.735046 970.891602,512.607727 
	C971.037964,494.106506 971.110901,476.073578 971.640747,458.026978 
	C989.731812,458.008881 1007.365906,458.004456 1025.000000,458.000000 
z"/>
<path fill="#FEFEFE" opacity="1.000000" stroke="none" 
	d="
M115.000000,1025.000000 
	C95.979103,1025.000000 76.958214,1025.000000 57.468658,1024.531372 
	C57.000240,1007.621033 56.900715,991.178223 57.077381,974.738403 
	C57.116943,971.056946 56.085884,969.866821 52.317139,969.907959 
	C35.213131,970.094788 18.106005,969.996033 1.000000,970.000000 
	C1.000000,950.979126 1.000000,931.958191 1.468639,912.473389 
	C18.716375,912.010315 35.496548,911.910583 52.273739,912.089905 
	C55.989361,912.129639 57.115517,911.037354 57.078300,907.300964 
	C56.904579,889.859131 57.008354,872.414551 57.413132,854.972168 
	C59.895153,855.308411 61.976955,855.643433 64.169785,856.215881 
	C64.313293,856.798889 64.345779,857.144470 64.272049,857.814575 
	C64.628799,858.791931 65.091782,859.444763 65.716904,860.403198 
	C66.082191,861.608093 66.285347,862.507385 66.369797,863.743042 
	C66.737877,864.743652 67.224670,865.407715 67.894440,866.374756 
	C68.846428,868.612488 69.615440,870.547302 70.283371,872.816711 
	C70.687218,873.792175 71.192139,874.432983 71.865601,875.391846 
	C80.137428,888.115540 88.240723,900.521057 95.848938,912.938354 
	C84.206741,912.963684 73.055382,913.157776 61.914745,912.895935 
	C57.839298,912.800232 56.874413,914.189575 56.924740,918.029480 
	C57.118793,932.834412 57.002403,947.643494 57.003716,962.450989 
	C57.004345,969.552002 57.383663,970.065125 64.650970,969.956299 
	C79.752258,969.730103 94.850060,969.234253 109.951599,969.087769 
	C113.412102,969.054199 114.108215,967.685059 114.060799,964.617249 
	C113.916809,955.302368 113.905815,945.981689 114.105835,936.668884 
	C114.140274,935.065491 115.461594,933.489624 116.484787,932.051270 
	C121.037758,935.358215 125.212189,938.633667 129.566483,941.649414 
	C142.722900,950.761475 157.176468,957.287659 172.128632,963.164307 
	C172.071823,965.384460 172.050049,967.157837 172.019684,969.200195 
	C172.006363,969.648499 172.001663,969.827881 171.528488,970.005371 
	C153.953598,969.999207 136.846176,970.091064 119.741531,969.914673 
	C116.059052,969.876770 114.870422,970.910889 114.912468,974.678162 
	C115.099655,991.450317 114.997551,1008.225769 115.000000,1025.000000 
z"/>
<path fill="#FEFFFF" opacity="1.000000" stroke="none" 
	d="
M1025.000000,171.000000 
	C1025.000000,209.354233 1025.000000,247.708450 1024.531372,286.528625 
	C1006.452759,286.981110 988.842712,286.967621 971.155029,286.494324 
	C970.959900,260.828186 970.842346,235.621811 970.814148,209.996185 
	C970.507751,207.689575 970.112061,205.802216 969.564331,203.525208 
	C969.333984,201.740982 969.255737,200.346390 969.391602,198.771194 
	C969.316284,197.695557 969.026672,196.800522 968.571350,195.556976 
	C968.366821,194.442337 968.328064,193.676224 968.526001,192.586365 
	C968.838196,185.173035 968.913879,178.083466 969.458801,170.996735 
	C988.285400,170.999741 1006.642700,170.999863 1025.000000,171.000000 
z"/>
<path fill="#FEFFFF" opacity="1.000000" stroke="none" 
	d="
M1.000000,287.000000 
	C1.000000,248.645767 1.000000,210.291550 1.468657,171.469452 
	C20.295147,170.999268 38.652977,170.996964 57.008156,171.463821 
	C57.263500,178.934219 57.521503,185.935440 57.789101,193.315750 
	C57.654087,194.434464 57.509483,195.174118 57.060909,196.085922 
	C56.583172,197.963882 56.409401,199.669693 56.263351,201.642517 
	C56.236961,202.262070 56.182854,202.614578 55.850685,203.154205 
	C55.652107,204.544327 55.731594,205.747360 55.830021,207.291382 
	C55.614670,208.742569 55.380379,209.852753 54.863945,211.158401 
	C54.713161,212.567657 54.844521,213.781464 55.013000,215.463089 
	C54.998848,229.073059 54.983253,242.215469 54.884880,255.357239 
	C54.807777,265.657440 54.628216,275.956909 54.054836,286.297638 
	C51.655922,286.558655 49.696972,286.962982 47.736675,286.969604 
	C32.157928,287.022369 16.578924,286.999603 1.000000,287.000000 
z"/>
<path fill="#FEFFFF" opacity="1.000000" stroke="none" 
	d="
M1.000000,855.000000 
	C1.000000,816.979126 1.000000,778.958191 1.468656,740.467346 
	C19.492548,740.008850 37.047783,740.020325 54.692928,740.490784 
	C54.851494,763.967224 54.920151,786.984741 54.720001,810.266602 
	C55.122540,815.056946 55.793884,819.582886 56.598919,824.416016 
	C56.740833,825.166443 56.749062,825.609619 56.553146,826.206909 
	C56.558586,826.906189 56.768169,827.451294 57.061806,828.324951 
	C57.163651,829.330505 57.181446,830.007507 57.114594,831.132629 
	C57.026108,833.386902 57.022259,835.193115 56.670437,837.050293 
	C50.476742,843.629028 50.351330,845.282837 54.739273,854.344604 
	C47.038685,855.077454 39.635426,855.886292 32.231194,855.895325 
	C21.821175,855.908020 11.410432,855.327026 1.000000,855.000000 
z"/>
<path fill="#EBEBEB" opacity="1.000000" stroke="none" 
	d="
M570.000000,1025.000000 
	C532.645752,1025.000000 495.291534,1025.000000 457.464203,1024.531372 
	C456.650177,1006.464539 456.309296,988.866272 456.431458,971.177490 
	C476.002838,971.074280 495.111267,971.028320 514.219543,971.058350 
	C532.823792,971.087646 551.427856,971.194580 570.025757,971.719238 
	C570.013000,989.780701 570.006470,1007.390381 570.000000,1025.000000 
z"/>
<path fill="#FEFEFE" opacity="1.000000" stroke="none" 
	d="
M286.000000,1.000000 
	C323.354218,1.000000 360.708466,1.000000 398.536011,1.468639 
	C399.010681,4.413919 398.970856,6.891381 399.020172,9.367066 
	C399.321930,24.514034 399.643890,39.660599 399.498901,54.884720 
	C361.369781,54.926273 323.700836,54.890408 286.021118,54.395111 
	C286.006897,36.290459 286.003448,18.645229 286.000000,1.000000 
z"/>
<path fill="#FEFFFF" opacity="1.000000" stroke="none" 
	d="
M1.000000,569.000000 
	C1.000000,532.312439 1.000000,495.624878 1.468631,458.463013 
	C19.530867,458.010590 37.124470,458.032532 54.783478,458.515289 
	C54.908051,476.988037 54.967213,494.999969 54.935867,513.472412 
	C54.754444,532.279053 54.663528,550.625122 54.130745,568.973999 
	C36.125919,568.984497 18.562960,568.992249 1.000000,569.000000 
z"/>
<path fill="#FEFEFE" opacity="1.000000" stroke="none" 
	d="
M1025.000000,912.000000 
	C1025.000000,931.020874 1025.000000,950.041809 1024.531372,969.525208 
	C1005.706238,969.984497 987.349731,969.981262 968.996216,969.739014 
	C968.999268,969.500000 969.004883,969.021973 969.002808,968.550781 
	C968.999573,951.477051 968.878540,934.873047 969.083557,918.273010 
	C969.133606,914.223999 968.099670,912.815247 963.852112,912.889404 
	C952.572510,913.086426 941.284241,912.790588 930.135803,912.349854 
	C941.407715,898.241516 950.867493,883.445312 958.071594,866.962769 
	C958.477295,866.106018 958.642334,865.403320 958.849731,864.351807 
	C959.194885,863.373596 959.497559,862.744141 960.046997,861.968140 
	C960.468994,861.120056 960.644348,860.418518 960.842834,859.362305 
	C961.385864,857.708984 961.905762,856.410339 962.830078,855.082642 
	C965.154724,855.034119 967.074951,855.014648 968.997559,854.997559 
	C969.000000,855.000000 968.992859,854.992676 968.997009,855.462097 
	C969.000732,873.039795 969.096497,890.149048 968.923157,907.255554 
	C968.885864,910.930847 969.899170,912.133972 973.676086,912.092468 
	C990.782349,911.904724 1007.891724,912.004028 1025.000000,912.000000 
z"/>
<path fill="#FEFEFE" opacity="1.000000" stroke="none" 
	d="
M57.000000,1.000000 
	C76.020897,1.000000 95.041786,1.000000 114.528137,1.468649 
	C114.991272,18.710667 115.089088,35.485111 114.908859,52.256569 
	C114.869026,55.963516 115.947693,57.109077 119.689384,57.071697 
	C137.125290,56.897514 154.563919,56.998760 172.008911,57.008789 
	C172.016220,57.016079 172.031235,57.030731 172.034332,57.446445 
	C171.973679,59.770012 171.909927,61.677860 171.506561,63.716934 
	C169.543076,64.315346 167.919189,64.782539 165.998291,65.189560 
	C165.082321,65.523193 164.463348,65.916992 163.523865,66.509789 
	C145.578445,73.464729 129.679092,83.134644 114.845978,94.859474 
	C114.351746,83.798409 113.992958,73.028366 114.108086,62.263393 
	C114.151703,58.185165 113.065018,56.846340 108.842743,56.901676 
	C91.563187,57.128155 74.278946,56.996532 56.998215,56.998375 
	C57.000000,57.000000 57.003368,57.003719 57.001141,56.534683 
	C56.999275,37.710430 56.999638,19.355215 57.000000,1.000000 
z"/>
<path fill="#FEFEFE" opacity="1.000000" stroke="none" 
	d="
M855.000000,1025.000000 
	C835.979126,1025.000000 816.958191,1025.000000 797.471924,1024.531372 
	C797.014648,1006.498840 797.022644,988.934875 797.486328,971.283630 
	C802.304932,971.174133 806.667725,971.151978 811.276367,971.383667 
	C813.025208,971.371155 814.528320,971.104919 816.362915,970.757324 
	C817.817566,970.541748 818.940674,970.407532 820.278931,970.486694 
	C821.702454,970.398376 822.910889,970.096680 824.487061,969.634521 
	C825.921387,969.397339 826.987854,969.320618 828.333862,969.479309 
	C834.718994,969.477478 840.841980,968.841919 846.925598,969.107361 
	C853.992004,969.415710 853.977051,969.758667 854.055908,962.756714 
	C854.168335,962.652161 854.473450,962.618591 854.843567,962.717163 
	C856.844360,962.047424 858.475098,961.279175 860.433716,960.322754 
	C863.370117,959.053040 865.980835,957.977051 868.586670,956.889160 
	C884.380554,950.295471 898.419434,940.845703 911.856506,930.843628 
	C911.941101,944.239868 911.970520,957.119934 911.531372,969.997864 
	C893.956116,969.994690 876.848511,970.089172 859.743652,969.916870 
	C856.066650,969.879883 854.868164,970.905640 854.910522,974.677673 
	C855.098755,991.450012 854.996887,1008.225586 855.000000,1025.000000 
z"/>
<path fill="#FEFFFF" opacity="1.000000" stroke="none" 
	d="
M1025.000000,797.000000 
	C1025.000000,816.354248 1025.000000,835.708435 1024.531372,855.525757 
	C1005.706116,855.656799 987.349487,855.324768 968.992859,854.992676 
	C968.992859,854.992676 969.000000,855.000000 968.989014,854.529541 
	C968.971924,848.255188 968.935486,842.451233 968.970825,836.647644 
	C968.992310,833.112610 969.124268,829.578186 969.173462,825.667358 
	C969.307800,824.565369 969.475342,823.839539 969.959900,822.925659 
	C970.411255,820.002136 970.545532,817.266663 970.651184,814.093384 
	C970.818542,808.114258 971.014526,802.572754 971.666016,797.025879 
	C989.747620,797.013611 1007.373840,797.006836 1025.000000,797.000000 
z"/>
<path fill="#EBEBEB" opacity="1.000000" stroke="none" 
	d="
M855.000000,1.000000 
	C873.687561,1.000000 892.375122,1.000000 911.526733,1.462648 
	C911.681152,11.284784 911.371582,20.644272 911.048279,30.460812 
	C911.353943,38.945446 911.673279,46.973030 911.990112,55.333447 
	C911.990906,56.110023 911.994202,56.553761 911.529053,56.992477 
	C892.038940,56.992794 873.017273,56.998138 854.001343,56.534637 
	C854.337952,37.710526 854.668945,19.355263 855.000000,1.000000 
z"/>
<path fill="#FEFFFF" opacity="1.000000" stroke="none" 
	d="
M1025.000000,57.000000 
	C1025.000000,75.687561 1025.000000,94.375122 1024.531372,113.530670 
	C1005.706116,114.001846 987.349426,114.005028 968.993652,113.538651 
	C968.997070,94.378838 968.999756,75.688583 969.001221,56.999161 
	C969.000000,57.000000 968.997559,57.001850 969.466370,56.997562 
	C988.290100,56.995518 1006.645081,56.997761 1025.000000,57.000000 
z"/>
<path fill="#FFFFFF" opacity="1.000000" stroke="none" 
	d="
M1.000000,114.000000 
	C1.000000,95.312439 1.000000,76.624878 1.468638,57.463852 
	C20.292641,56.994827 38.648006,56.999275 57.003368,57.003719 
	C57.003368,57.003719 57.000000,57.000000 57.000443,57.467396 
	C57.003120,76.625664 57.005352,95.316536 56.538452,114.005287 
	C37.712883,114.002106 19.356441,114.001053 1.000000,114.000000 
z"/>
<path fill="#EBEBEB" opacity="1.000000" stroke="none" 
	d="
M1.000000,114.468658 
	C19.356441,114.001053 37.712883,114.002106 56.534386,114.001297 
	C56.999443,113.999435 56.993130,113.992897 56.994728,114.462265 
	C56.995941,133.624710 56.995560,152.317810 56.996986,171.005707 
	C56.998802,171.000519 57.010811,170.994659 57.010811,170.994659 
	C38.652977,170.996964 20.295147,170.999268 1.468657,171.000793 
	C1.000000,152.312439 1.000000,133.624878 1.000000,114.468658 
z"/>
<path fill="#EAEBEA" opacity="1.000000" stroke="none" 
	d="
M968.992798,114.008209 
	C987.349426,114.005028 1005.706116,114.001846 1024.531372,113.999329 
	C1025.000000,132.687561 1025.000000,151.375122 1025.000000,170.531342 
	C1006.642700,170.999863 988.285400,170.999741 969.464661,171.000061 
	C969.001221,171.000534 969.005371,171.010452 969.004150,170.540649 
	C969.004578,151.378357 969.006165,132.685837 969.004150,113.996384 
	C969.000549,113.999428 968.992798,114.008209 968.992798,114.008209 
z"/>
<path fill="#EBEBEB" opacity="1.000000" stroke="none" 
	d="
M172.001587,57.001495 
	C154.563919,56.998760 137.125290,56.897514 119.689384,57.071697 
	C115.947693,57.109077 114.869026,55.963516 114.908859,52.256569 
	C115.089088,35.485111 114.991272,18.710667 114.996796,1.468649 
	C133.687561,1.000000 152.375122,1.000000 171.527237,1.468644 
	C171.995056,20.292023 171.998322,38.646759 172.001587,57.001495 
z"/>
<path fill="#EBEBEB" opacity="1.000000" stroke="none" 
	d="
M1.000000,855.468628 
	C11.410432,855.327026 21.821175,855.908020 32.231194,855.895325 
	C39.635426,855.886292 47.038685,855.077454 54.994987,854.444702 
	C56.041683,854.509033 56.535774,854.754272 57.016449,855.000000 
	C57.003029,855.000549 57.012913,854.970947 57.012913,854.970947 
	C57.008354,872.414551 56.904579,889.859131 57.078300,907.300964 
	C57.115517,911.037354 55.989361,912.129639 52.273739,912.089905 
	C35.496548,911.910583 18.716375,912.010315 1.468639,912.004761 
	C1.000000,893.312439 1.000000,874.624878 1.000000,855.468628 
z"/>
<path fill="#FEFEFE" opacity="1.000000" stroke="none" 
	d="
M854.531372,1.000000 
	C854.668945,19.355263 854.337952,37.710526 853.996948,56.539658 
	C853.986877,57.013531 853.976257,57.024822 853.510193,57.028130 
	C847.247864,57.024406 841.451416,57.039326 835.655334,57.001022 
	C832.783630,56.982044 829.912537,56.865116 826.718140,56.793736 
	C825.971619,56.719742 825.548279,56.644512 825.007690,56.282829 
	C823.604797,55.939304 822.319092,55.882233 820.608521,55.847198 
	C818.504822,55.716587 816.825989,55.563946 815.039795,55.181091 
	C814.282532,55.013779 813.632690,55.076679 812.517029,55.134911 
	C807.050293,54.978176 802.049316,54.826115 797.040222,54.225914 
	C797.021362,36.185184 797.010681,18.592592 797.000000,1.000000 
	C816.020874,1.000000 835.041809,1.000000 854.531372,1.000000 
z"/>
<path fill="#EBEBEB" opacity="1.000000" stroke="none" 
	d="
M968.997009,855.462097 
	C987.349487,855.324768 1005.706116,855.656799 1024.531372,855.994385 
	C1025.000000,874.354248 1025.000000,892.708435 1025.000000,911.531372 
	C1007.891724,912.004028 990.782349,911.904724 973.676086,912.092468 
	C969.899170,912.133972 968.885864,910.930847 968.923157,907.255554 
	C969.096497,890.149048 969.000732,873.039795 968.997009,855.462097 
z"/>
<path fill="#EBEBEB" opacity="1.000000" stroke="none" 
	d="
M115.468658,1025.000000 
	C114.997551,1008.225769 115.099655,991.450317 114.912468,974.678162 
	C114.870422,970.910889 116.059052,969.876770 119.741531,969.914673 
	C136.846176,970.091064 153.953598,969.999207 171.526596,970.458618 
	C171.996902,973.941956 172.000656,976.970154 172.002136,980.249146 
	C172.001282,980.667236 172.002716,980.834473 172.000000,981.389404 
	C172.326080,983.191284 172.656296,984.605469 172.987930,986.458496 
	C172.659561,999.598206 172.329788,1012.299133 172.000000,1025.000000 
	C153.312439,1025.000000 134.624878,1025.000000 115.468658,1025.000000 
z"/>
<path fill="#EBEBEB" opacity="1.000000" stroke="none" 
	d="
M57.001141,56.534683 
	C38.648006,56.999275 20.292641,56.994827 1.468638,56.995193 
	C1.000000,38.406548 1.000000,19.813091 1.000000,1.000000 
	C19.353643,1.000000 37.708164,1.000000 56.531342,1.000000 
	C56.999638,19.355215 56.999275,37.710430 57.001141,56.534683 
z"/>
<path fill="#EBEBEB" opacity="1.000000" stroke="none" 
	d="
M1025.000000,56.531342 
	C1006.645081,56.997761 988.290100,56.995518 969.468323,56.528698 
	C969.000977,37.709415 969.000488,19.354708 969.000000,1.000000 
	C987.593445,1.000000 1006.186951,1.000000 1025.000000,1.000000 
	C1025.000000,19.353643 1025.000000,37.708164 1025.000000,56.531342 
z"/>
<path fill="#FEFEFE" opacity="1.000000" stroke="none" 
	d="
M455.000000,1.000000 
	C474.020905,1.000000 493.041779,1.000000 512.531372,1.468657 
	C512.989746,19.578800 512.979431,37.220284 512.506592,54.925907 
	C493.040863,54.943306 474.037689,54.896572 455.026733,54.390659 
	C455.012634,36.287655 455.006317,18.643827 455.000000,1.000000 
z"/>
<path fill="#FEFEFE" opacity="1.000000" stroke="none" 
	d="
M1.000000,401.000000 
	C1.000000,381.979095 1.000000,362.958221 1.468647,343.472168 
	C17.292162,343.002258 32.647030,342.997467 48.401451,342.997253 
	C49.866524,342.998077 50.932041,342.994354 52.330574,342.997009 
	C53.329567,343.018280 53.995544,343.033203 54.745895,343.506958 
	C54.767017,362.958405 54.703762,381.950928 54.194611,400.957916 
	C36.165810,400.981567 18.582905,400.990784 1.000000,401.000000 
z"/>
<path fill="#FEFEFE" opacity="1.000000" stroke="none" 
	d="
M1025.000000,343.000000 
	C1025.000000,362.020905 1025.000000,381.041779 1024.531372,400.531342 
	C1006.448425,400.985352 988.834106,400.970703 971.144226,400.495850 
	C971.124146,381.039062 971.179626,362.042480 971.688843,343.035522 
	C989.761780,343.016785 1007.380859,343.008392 1025.000000,343.000000 
z"/>
<path fill="#FEFEFE" opacity="1.000000" stroke="none" 
	d="
M683.000000,1.000000 
	C702.020874,1.000000 721.041809,1.000000 740.527100,1.468643 
	C740.979004,19.532099 740.966431,37.126911 740.494507,54.803802 
	C721.037292,54.852478 702.039368,54.819073 683.032227,54.330544 
	C683.015320,36.250278 683.007629,18.625139 683.000000,1.000000 
z"/>
<path fill="#FEFEFE" opacity="1.000000" stroke="none" 
	d="
M172.008911,57.008789 
	C171.998322,38.646759 171.995056,20.292023 171.995895,1.468644 
	C190.687561,1.000000 209.375122,1.000000 228.527557,1.468646 
	C228.982391,19.564484 228.972351,37.191677 228.516037,54.892845 
	C225.045609,54.972622 222.021484,54.978424 218.737549,54.722458 
	C216.644135,54.699409 214.810501,54.938133 212.580063,55.218124 
	C210.601883,55.330528 209.020538,55.401665 207.022705,55.326401 
	C204.697647,55.651745 202.789093,56.123493 200.567474,56.684368 
	C199.821716,56.781246 199.389008,56.789001 198.668839,56.551071 
	C189.597992,56.547165 180.814606,56.788948 172.031235,57.030731 
	C172.031235,57.030731 172.016220,57.016079 172.008911,57.008789 
z"/>
<path fill="#EBEBEB" opacity="1.000000" stroke="none" 
	d="
M855.468628,1025.000000 
	C854.996887,1008.225586 855.098755,991.450012 854.910522,974.677673 
	C854.868164,970.905640 856.066650,969.879883 859.743652,969.916870 
	C876.848511,970.089172 893.956116,969.994690 911.526245,970.466553 
	C911.993164,988.958191 911.996582,1006.979126 912.000000,1025.000000 
	C893.312439,1025.000000 874.624878,1025.000000 855.468628,1025.000000 
z"/>
<path fill="#FEFEFE" opacity="1.000000" stroke="none" 
	d="
M1.000000,683.000000 
	C1.000000,664.312439 1.000000,645.624878 1.373451,626.462036 
	C2.493106,625.970947 3.239312,625.955078 4.454820,625.954712 
	C18.287544,625.957703 31.650967,625.945068 45.416248,625.949585 
	C47.547565,625.647583 49.277023,625.328491 51.363911,625.012207 
	C52.674400,625.019592 53.627464,625.024109 54.678558,625.486328 
	C54.712940,644.952759 54.649284,663.961304 54.142948,682.972290 
	C36.133511,682.983154 18.566755,682.991577 1.000000,683.000000 
z"/>
<path fill="#FFFFFF" opacity="1.000000" stroke="none" 
	d="
M741.000000,1025.000000 
	C721.979126,1025.000000 702.958191,1025.000000 683.470703,1024.531372 
	C683.013794,1006.485657 683.023621,988.908508 683.493164,971.247681 
	C702.625305,971.189880 721.297668,971.215820 739.979431,971.695251 
	C740.325867,989.765808 740.662964,1007.382874 741.000000,1025.000000 
z"/>
<path fill="#FFFFFF" opacity="1.000000" stroke="none" 
	d="
M455.968384,971.268066 
	C456.309296,988.866272 456.650177,1006.464539 456.995544,1024.531372 
	C438.312439,1025.000000 419.624878,1025.000000 400.464233,1024.531372 
	C399.672028,1006.477661 399.352905,988.892639 399.493530,971.223755 
	C418.624969,971.182617 437.296692,971.225342 455.968384,971.268066 
z"/>
<path fill="#EBEBEB" opacity="1.000000" stroke="none" 
	d="
M1.000000,970.468628 
	C18.106005,969.996033 35.213131,970.094788 52.317139,969.907959 
	C56.085884,969.866821 57.116943,971.056946 57.077381,974.738403 
	C56.900715,991.178223 57.000240,1007.621033 57.000000,1024.531372 
	C38.407207,1025.000000 19.814419,1025.000000 1.000000,1025.000000 
	C1.000000,1006.979736 1.000000,988.958496 1.000000,970.468628 
z"/>
<path fill="#FEFEFE" opacity="1.000000" stroke="none" 
	d="
M1025.000000,683.000000 
	C1025.000000,701.687561 1025.000000,720.375122 1024.531372,739.534668 
	C1006.430786,739.996033 988.798889,739.985352 971.083557,739.514221 
	C971.055908,720.377563 971.111633,701.701355 971.625427,683.019897 
	C989.722351,683.009644 1007.361206,683.004822 1025.000000,683.000000 
z"/>
<path fill="#EAEBEA" opacity="1.000000" stroke="none" 
	d="
M1.000000,683.468628 
	C18.566755,682.991577 36.133511,682.983154 54.246101,683.432617 
	C54.728966,702.604309 54.665993,721.318115 54.603020,740.031860 
	C37.047783,740.020325 19.492548,740.008850 1.468656,739.998657 
	C1.000000,721.312439 1.000000,702.624878 1.000000,683.468628 
z"/>
<path fill="#EAEAEA" opacity="1.000000" stroke="none" 
	d="
M971.166870,739.974731 
	C988.798889,739.985352 1006.430786,739.996033 1024.531372,740.003357 
	C1025.000000,758.687561 1025.000000,777.375122 1025.000000,796.531372 
	C1007.373840,797.006836 989.747620,797.013611 971.577881,796.562134 
	C971.078491,777.394165 971.122681,758.684448 971.166870,739.974731 
z"/>
<path fill="#EAEBEA" opacity="1.000000" stroke="none" 
	d="
M1025.000000,682.531372 
	C1007.361206,683.004822 989.722351,683.009644 971.537354,682.556519 
	C971.055237,663.390015 971.119263,644.681458 971.183289,625.972900 
	C988.809753,625.983826 1006.436279,625.994751 1024.531372,626.002808 
	C1025.000000,644.687561 1025.000000,663.375122 1025.000000,682.531372 
z"/>
<path fill="#EBEBEB" opacity="1.000000" stroke="none" 
	d="
M228.962326,54.818871 
	C228.972351,37.191677 228.982391,19.564484 228.996216,1.468646 
	C247.687561,1.000000 266.375122,1.000000 285.531342,1.000000 
	C286.003448,18.645229 286.006897,36.290459 285.554626,54.468971 
	C266.386749,54.941128 247.674530,54.879997 228.962326,54.818871 
z"/>
<path fill="#FFFFFF" opacity="1.000000" stroke="none" 
	d="
M343.000000,1025.000000 
	C324.312439,1025.000000 305.624878,1025.000000 286.466522,1024.531372 
	C286.008026,1006.472656 286.020355,988.882568 286.492920,971.211304 
	C305.624634,971.177979 324.296173,971.225891 342.972351,971.725220 
	C342.984711,989.784485 342.992340,1007.392212 343.000000,1025.000000 
z"/>
<path fill="#FEFEFE" opacity="1.000000" stroke="none" 
	d="
M570.000000,1.000000 
	C588.687561,1.000000 607.375122,1.000000 626.531372,1.468657 
	C626.987061,19.558210 626.974121,37.179104 626.500000,54.871021 
	C607.370911,54.905918 588.703003,54.869789 570.023560,54.375561 
	C570.007996,36.278309 570.003967,18.639154 570.000000,1.000000 
z"/>
<path fill="#EBEBEB" opacity="1.000000" stroke="none" 
	d="
M569.531372,1.000000 
	C570.003967,18.639154 570.007996,36.278309 569.556824,54.448990 
	C550.390808,54.940937 531.679932,54.901352 512.969116,54.861771 
	C512.979431,37.220284 512.989746,19.578800 513.000000,1.468657 
	C531.687561,1.000000 550.375122,1.000000 569.531372,1.000000 
z"/>
<path fill="#EBEBEB" opacity="1.000000" stroke="none" 
	d="
M286.032654,971.292480 
	C286.020355,988.882568 286.008026,1006.472656 285.997864,1024.531372 
	C267.312439,1025.000000 248.624878,1025.000000 229.464996,1024.531372 
	C228.986176,1006.523010 228.979675,988.983337 229.433319,971.341187 
	C248.606522,971.256653 267.319580,971.274536 286.032654,971.292480 
z"/>
<path fill="#E7E8E8" opacity="1.000000" stroke="none" 
	d="
M1.000000,401.468628 
	C18.582905,400.990784 36.165810,400.981567 54.295242,401.421600 
	C54.800537,420.598724 54.759304,439.326599 54.718075,458.054474 
	C37.124470,458.032532 19.530867,458.010590 1.468631,457.994324 
	C1.000000,439.312439 1.000000,420.624878 1.000000,401.468628 
z"/>
<path fill="#EAEAEA" opacity="1.000000" stroke="none" 
	d="
M971.219788,400.956085 
	C988.834106,400.970703 1006.448425,400.985352 1024.531372,401.000000 
	C1025.000000,419.687561 1025.000000,438.375122 1025.000000,457.531342 
	C1007.365906,458.004456 989.731812,458.008881 971.570618,457.559479 
	C971.102295,438.389130 971.161011,419.672607 971.219788,400.956085 
z"/>
<path fill="#FFFFFF" opacity="1.000000" stroke="none" 
	d="
M570.468628,1025.000000 
	C570.006470,1007.390381 570.013000,989.780701 570.486450,971.640381 
	C589.624817,971.161438 608.296265,971.213196 626.972412,971.716919 
	C626.984741,989.779358 626.992371,1007.389648 627.000000,1025.000000 
	C608.312439,1025.000000 589.624878,1025.000000 570.468628,1025.000000 
z"/>
<path fill="#EBEBEB" opacity="1.000000" stroke="none" 
	d="
M741.468628,1025.000000 
	C740.662964,1007.382874 740.325867,989.765808 740.443848,971.613647 
	C759.609436,971.176086 778.320068,971.273560 797.030640,971.370972 
	C797.022644,988.934875 797.014648,1006.498840 797.003296,1024.531372 
	C778.645752,1025.000000 760.291565,1025.000000 741.468628,1025.000000 
z"/>
<path fill="#EBEBEB" opacity="1.000000" stroke="none" 
	d="
M343.468628,1025.000000 
	C342.992340,1007.392212 342.984711,989.784485 343.436584,971.641724 
	C362.275360,971.173645 380.654602,971.240601 399.033813,971.307556 
	C399.352905,988.892639 399.672028,1006.477661 399.995544,1024.531372 
	C381.312439,1025.000000 362.624878,1025.000000 343.468628,1025.000000 
z"/>
<path fill="#EBEBEB" opacity="1.000000" stroke="none" 
	d="
M45.014389,625.932495 
	C31.650967,625.945068 18.287544,625.957703 4.402133,625.617676 
	C2.920095,624.843384 1.960047,624.421692 1.000000,624.000000 
	C1.000000,605.979126 1.000000,587.958191 1.000000,569.468628 
	C18.562960,568.992249 36.125919,568.984497 54.233299,569.434326 
	C54.711983,588.270752 54.646255,606.649719 54.580528,625.028564 
	C53.627464,625.024109 52.674400,625.019592 51.160015,624.734131 
	C48.200260,622.919189 45.914291,621.809814 45.014389,625.932495 
z"/>
<path fill="#FFFFFF" opacity="1.000000" stroke="none" 
	d="
M912.468628,1025.000000 
	C911.996582,1006.979126 911.993164,988.958191 912.463501,970.463562 
	C931.626526,969.667236 950.315674,969.344604 969.004883,969.021973 
	C969.004883,969.021973 968.999268,969.500000 968.998779,970.191528 
	C968.992798,973.589111 968.987305,976.295105 968.587158,979.093140 
	C967.795044,981.341187 967.161865,983.483704 967.038635,985.655212 
	C966.294250,998.766479 965.666626,1011.884338 965.000000,1025.000000 
	C947.645752,1025.000000 930.291565,1025.000000 912.468628,1025.000000 
M944.390625,1010.202454 
	C944.785461,1010.206665 945.180359,1010.210815 945.575195,1010.215027 
	C945.576660,1010.051208 945.589172,1009.744934 945.578125,1009.744080 
	C945.185242,1009.713806 944.790100,1009.712158 944.390625,1010.202454 
z"/>
<path fill="#EBEBEB" opacity="1.000000" stroke="none" 
	d="
M627.468628,1025.000000 
	C626.992371,1007.389648 626.984741,989.779358 627.436279,971.630737 
	C646.274658,971.172119 664.654053,971.251770 683.033386,971.331421 
	C683.023621,988.908508 683.013794,1006.485657 683.002014,1024.531372 
	C664.645752,1025.000000 646.291565,1025.000000 627.468628,1025.000000 
z"/>
<path fill="#EAEBEA" opacity="1.000000" stroke="none" 
	d="
M1025.000000,342.531342 
	C1007.380859,343.008392 989.761780,343.016785 971.604004,342.569550 
	C971.121155,323.727325 971.176941,305.340729 971.232727,286.954132 
	C988.842712,286.967621 1006.452759,286.981110 1024.531372,286.997314 
	C1025.000000,305.354218 1025.000000,323.708466 1025.000000,342.531342 
z"/>
<path fill="#EBEBEB" opacity="1.000000" stroke="none" 
	d="
M626.961182,54.799995 
	C626.974121,37.179104 626.987061,19.558210 627.000000,1.468657 
	C645.354248,1.000000 663.708435,1.000000 682.531372,1.000000 
	C683.007629,18.625139 683.015320,36.250278 682.566406,54.414703 
	C663.726990,54.902660 645.344055,54.851330 626.961182,54.799995 
z"/>
<path fill="#EBEBEB" opacity="1.000000" stroke="none" 
	d="
M740.953857,54.721725 
	C740.966431,37.126911 740.979004,19.532099 740.995789,1.468643 
	C759.354248,1.000000 777.708435,1.000000 796.531372,1.000000 
	C797.010681,18.592592 797.021362,36.185184 796.577637,54.330742 
	C777.733459,54.829712 759.343628,54.775719 740.953857,54.721725 
z"/>
<path fill="#EAEBEA" opacity="1.000000" stroke="none" 
	d="
M454.531342,1.000000 
	C455.006317,18.643827 455.012634,36.287655 454.560852,54.471340 
	C436.054901,54.943233 418.006989,54.875267 399.959106,54.807301 
	C399.643890,39.660599 399.321930,24.514034 399.020172,9.367066 
	C398.970856,6.891381 399.010681,4.413919 399.004639,1.468639 
	C417.354218,1.000000 435.708466,1.000000 454.531342,1.000000 
z"/>
<path fill="#FFFFFF" opacity="1.000000" stroke="none" 
	d="
M228.973160,971.443604 
	C228.979675,988.983337 228.986176,1006.523010 228.996338,1024.531372 
	C210.312439,1025.000000 191.624878,1025.000000 172.468658,1025.000000 
	C172.329788,1012.299133 172.659561,999.598206 173.123810,986.146729 
	C172.840225,983.931335 172.422195,982.466492 172.004150,981.001648 
	C172.002716,980.834473 172.001282,980.667236 172.303406,980.102905 
	C176.417908,974.649780 181.208755,973.109070 187.452560,976.454712 
	C187.696365,974.470886 187.848190,973.235413 188.375427,971.999634 
	C190.170105,971.082397 191.589386,970.165527 193.062225,969.087524 
	C193.115799,968.926392 193.120575,968.586853 193.516083,968.598999 
	C194.939987,968.820984 195.968369,969.030884 197.008102,969.594421 
	C198.012985,970.632019 199.006500,971.315979 200.007751,972.372131 
	C202.648834,974.437378 205.282196,976.130554 207.915558,977.823669 
	C208.620728,975.857178 209.325897,973.890625 210.425446,971.937988 
	C212.535065,971.688354 214.250275,971.424866 216.427917,971.107178 
	C220.917953,971.183228 224.945557,971.313416 228.973160,971.443604 
z"/>
<path fill="#EBEBEB" opacity="1.000000" stroke="none" 
	d="
M968.981750,979.001099 
	C968.987305,976.295105 968.992798,973.589111 968.995789,970.430542 
	C987.349731,969.981262 1005.706238,969.984497 1024.531372,969.993896 
	C1025.000000,988.260803 1025.000000,1006.521545 1025.000000,1025.000000 
	C1006.646362,1025.000000 988.291809,1025.000000 969.468628,1024.531372 
	C968.993896,1009.042175 968.987854,994.021667 968.981750,979.001099 
M987.471619,983.923096 
	C985.145752,985.957397 982.819885,987.991760 980.494019,990.026062 
	C981.185242,989.333740 981.876465,988.641357 982.567688,987.949036 
	C985.505005,991.374756 988.442322,994.800476 989.979248,996.593018 
	C991.785522,994.833801 995.009827,991.693542 998.234070,988.553284 
	C998.111145,989.527649 997.988159,990.501953 997.865234,991.476318 
	C994.791687,988.185120 991.718079,984.893921 988.644531,981.602722 
	C988.953552,981.195496 989.262634,980.788269 989.571655,980.380981 
	C988.997803,981.361511 988.423950,982.342041 987.471619,983.923096 
z"/>
<path fill="#EBEBEB" opacity="1.000000" stroke="none" 
	d="
M54.661518,343.048096 
	C53.995544,343.033203 53.329567,343.018280 52.296551,342.661011 
	C51.173420,341.654083 50.417336,340.989563 49.661247,340.325012 
	C49.108128,341.214233 48.555008,342.103455 48.001892,342.992676 
	C32.647030,342.997467 17.292162,343.002258 1.468647,343.003540 
	C1.000000,324.645782 1.000000,306.291534 1.000000,287.468658 
	C16.578924,286.999603 32.157928,287.022369 47.736675,286.969604 
	C49.696972,286.962982 51.655922,286.558655 54.034866,286.704834 
	C54.441242,289.013763 54.428249,290.956482 54.010174,292.968536 
	C51.443661,297.437195 49.211620,301.804565 47.192738,306.268372 
	C46.869373,306.983337 47.241653,308.300385 47.735176,309.046021 
	C49.561958,311.805878 49.604160,313.677002 46.168602,315.342712 
	C45.034542,315.892548 44.251862,318.398834 44.409729,319.894348 
	C44.496841,320.719635 46.806759,321.677704 48.223431,321.908783 
	C50.324158,322.251404 52.521469,322.001831 54.758854,322.398926 
	C54.787510,323.861176 54.734978,324.928864 54.326874,326.007568 
	C53.047779,327.068146 51.157745,328.493317 51.390938,329.093323 
	C51.974873,330.595795 53.520943,331.724365 54.763073,333.451050 
	C54.783905,336.948792 54.722710,339.998444 54.661518,343.048096 
z"/>
<path fill="#FFFFFF" opacity="1.000000" stroke="none" 
	d="
M911.992676,55.000610 
	C911.673279,46.973030 911.353943,38.945446 911.444824,30.457729 
	C913.433533,28.604975 915.011902,27.212353 917.035889,25.426540 
	C916.615112,25.299673 917.253723,25.289722 917.488647,25.592760 
	C922.840393,32.495018 931.604309,27.644308 937.845093,31.485682 
	C938.079163,31.629759 938.714905,31.095554 939.174255,30.903366 
	C944.869995,28.520351 950.636292,26.286686 956.210388,23.647154 
	C957.399963,23.083862 957.893372,21.050480 958.707458,19.694345 
	C957.367920,19.637058 956.028748,19.568876 954.688721,19.528419 
	C954.221008,19.514297 953.751282,19.568571 952.936462,19.608616 
	C950.114746,15.667581 947.250488,11.667036 945.000000,8.523811 
	C945.000000,5.478415 945.000000,3.239207 945.000000,1.000000 
	C947.370544,1.000000 949.741150,1.000000 952.556824,1.384429 
	C952.953003,4.706080 954.132935,6.060231 957.276184,5.449457 
	C958.230408,5.264043 959.337402,5.864674 960.374390,6.105293 
	C960.055481,7.099454 959.825378,8.133637 959.398926,9.079350 
	C958.516235,11.037195 957.529175,12.948009 957.130493,13.762992 
	C960.289612,16.583298 963.454285,18.149246 964.443359,20.595072 
	C965.830200,24.024450 965.675781,28.101244 966.031799,31.914993 
	C966.271362,34.480721 966.013611,37.106998 966.399475,39.642101 
	C967.299622,45.556076 967.883240,51.386776 964.597900,56.979069 
	C963.132263,56.981995 962.066223,56.975906 960.948853,56.639435 
	C959.931641,56.529728 958.965698,56.750412 957.555786,56.978462 
	C954.742004,56.980804 952.372192,56.975777 949.908203,56.576424 
	C948.149658,55.788078 946.488525,55.068390 944.820740,55.052803 
	C933.878845,54.950584 922.935547,55.000420 911.992676,55.000610 
z"/>
<path fill="#FEFEFE" opacity="1.000000" stroke="none" 
	d="
M944.531372,1.000000 
	C945.000000,3.239207 945.000000,5.478415 945.000000,8.523811 
	C947.250488,11.667036 950.114746,15.667581 952.936462,19.608616 
	C953.751282,19.568571 954.221008,19.514297 954.688721,19.528419 
	C956.028748,19.568876 957.367920,19.637058 958.707458,19.694345 
	C957.893372,21.050480 957.399963,23.083862 956.210388,23.647154 
	C950.636292,26.286686 944.869995,28.520351 939.174255,30.903366 
	C938.714905,31.095554 938.079163,31.629759 937.845093,31.485682 
	C931.604309,27.644308 922.840393,32.495018 917.488647,25.592760 
	C917.253723,25.289722 916.615112,25.299673 917.035889,25.426540 
	C915.011902,27.212353 913.433533,28.604975 911.458618,30.000679 
	C911.371582,20.644272 911.681152,11.284784 911.995361,1.462648 
	C922.687561,1.000000 933.375122,1.000000 944.531372,1.000000 
z"/>
<path fill="#FEFEFE" opacity="1.000000" stroke="none" 
	d="
M964.997559,56.970055 
	C967.883240,51.386776 967.299622,45.556076 966.399475,39.642101 
	C966.013611,37.106998 966.271362,34.480721 966.031799,31.914993 
	C965.675781,28.101244 965.830200,24.024450 964.443359,20.595072 
	C963.454285,18.149246 960.289612,16.583298 957.130493,13.762992 
	C957.529175,12.948009 958.516235,11.037195 959.398926,9.079350 
	C959.825378,8.133637 960.055481,7.099454 960.374390,6.105293 
	C959.337402,5.864674 958.230408,5.264043 957.276184,5.449457 
	C954.132935,6.060231 952.953003,4.706080 953.000977,1.384429 
	C958.022095,1.000000 963.044189,1.000000 968.533142,1.000000 
	C969.000488,19.354708 969.000977,37.709415 968.999512,56.532986 
	C968.997559,57.001850 969.000000,57.000000 968.600708,57.000397 
	C967.133484,56.990547 966.065491,56.980301 964.997559,56.970055 
z"/>
<path fill="#FEFEFE" opacity="1.000000" stroke="none" 
	d="
M968.587158,979.093140 
	C968.987854,994.021667 968.993896,1009.042175 969.000000,1024.531372 
	C967.933289,1025.000000 966.866638,1025.000000 965.399963,1025.000000 
	C965.666626,1011.884338 966.294250,998.766479 967.038635,985.655212 
	C967.161865,983.483704 967.795044,981.341187 968.587158,979.093140 
z"/>
<path fill="#E7E8E8" opacity="1.000000" stroke="none" 
	d="
M1.000000,624.333313 
	C1.960047,624.421692 2.920095,624.843384 3.932830,625.602112 
	C3.239312,625.955078 2.493106,625.970947 1.373451,625.993408 
	C1.000000,625.555542 1.000000,625.111084 1.000000,624.333313 
z"/>
<path fill="#75A3A2" opacity="1.000000" stroke="none" 
	d="
M54.415260,292.899200 
	C54.428249,290.956482 54.441242,289.013763 54.474205,286.663879 
	C54.628216,275.956909 54.807777,265.657440 54.884880,255.357239 
	C54.983253,242.215469 54.998848,229.073059 55.226547,215.231232 
	C55.317345,213.341995 55.231716,212.152466 55.146088,210.962936 
	C55.380379,209.852753 55.614670,208.742569 56.068485,207.086060 
	C56.234921,205.348846 56.181831,204.157959 56.128746,202.967087 
	C56.182854,202.614578 56.236961,202.262070 56.574223,201.439575 
	C57.026539,199.284302 57.195705,197.599030 57.364872,195.913757 
	C57.509483,195.174118 57.654087,194.434464 58.088009,193.080933 
	C60.109001,185.284561 61.840679,178.102066 63.739456,170.566772 
	C67.430229,161.999680 70.225487,153.366287 74.652382,145.671616 
	C80.920059,134.777374 88.391510,124.575661 95.619652,113.906723 
	C102.317261,107.541168 108.743690,101.346848 115.170113,95.152519 
	C129.679092,83.134644 145.578445,73.464729 163.809204,66.635483 
	C165.041779,66.124695 165.668549,65.687210 166.295303,65.249725 
	C167.919189,64.782539 169.543076,64.315346 171.887939,63.773499 
	C181.391388,61.398151 190.173859,59.097458 198.956314,56.796761 
	C199.389008,56.789001 199.821716,56.781246 200.963531,56.790855 
	C203.594833,56.363079 205.517014,55.917938 207.439178,55.472801 
	C209.020538,55.401665 210.601883,55.330528 212.877808,55.406391 
	C215.380707,55.363674 217.189026,55.173950 218.997345,54.984230 
	C222.021484,54.978424 225.045609,54.972622 228.516037,54.892845 
	C247.674530,54.879997 266.386749,54.941128 285.565430,54.928398 
	C323.700836,54.890408 361.369781,54.926273 399.498901,54.884720 
	C418.006989,54.875267 436.054901,54.943233 454.568665,54.930519 
	C474.037689,54.896572 493.040863,54.943306 512.506592,54.925907 
	C531.679932,54.901352 550.390808,54.940937 569.568359,54.907089 
	C588.703003,54.869789 607.370911,54.905918 626.500000,54.871017 
	C645.344055,54.851330 663.726990,54.902660 682.575684,54.869827 
	C702.039368,54.819073 721.037292,54.852478 740.494507,54.803802 
	C759.343628,54.775719 777.733459,54.829712 796.585815,54.778881 
	C802.049316,54.826115 807.050293,54.978176 812.737427,55.339600 
	C813.998108,55.503071 814.572632,55.457188 815.147156,55.411304 
	C816.825989,55.563946 818.504822,55.716587 820.846558,56.127632 
	C822.714600,56.447113 823.919739,56.508198 825.124878,56.569286 
	C825.548279,56.644512 825.971619,56.719742 826.978455,57.082657 
	C836.306335,59.337776 845.050781,61.305206 854.060547,63.530445 
	C855.126038,63.966343 855.953369,64.066139 856.722229,64.333977 
	C876.658325,71.278587 894.645874,81.662430 911.063354,95.380219 
	C917.675964,101.813293 924.134155,107.948822 930.717651,114.417465 
	C935.880737,121.737610 941.682617,128.307419 945.778320,135.808746 
	C952.031250,147.260956 957.105225,159.356888 962.723145,171.582535 
	C964.607483,178.960403 966.448364,185.935257 968.289307,192.910095 
	C968.328064,193.676224 968.366821,194.442337 968.421265,195.868576 
	C968.683777,197.336380 968.930664,198.144089 969.177490,198.951797 
	C969.255737,200.346390 969.333984,201.740982 969.412781,203.907898 
	C969.850464,206.591949 970.287659,208.503693 970.724854,210.415436 
	C970.842346,235.621811 970.959900,260.828186 971.155029,286.494324 
	C971.176941,305.340729 971.121155,323.727325 971.150269,342.579895 
	C971.179626,362.042480 971.124146,381.039062 971.144226,400.495850 
	C971.161011,419.672607 971.102295,438.389130 971.113647,457.573120 
	C971.110901,476.073578 971.037964,494.106506 970.435913,512.587830 
	C918.775269,513.040894 867.643616,513.045654 816.437866,512.601379 
	C816.526855,502.344513 816.848938,492.536133 816.817444,482.728882 
	C816.765137,466.425659 816.353210,450.123322 816.336182,433.820343 
	C816.315613,414.190613 816.549316,394.560608 816.730957,374.470642 
	C816.715332,368.337494 816.641724,362.664429 816.676208,356.535889 
	C816.784851,328.253113 816.839905,300.425598 816.716248,272.598846 
	C816.700867,269.150055 816.014709,265.634827 815.163879,262.270660 
	C810.404297,243.453140 792.119324,229.727798 771.273987,229.764603 
	C629.299316,230.015320 487.323944,229.881821 345.348785,229.884766 
	C314.020996,229.885422 282.692291,229.802963 251.365692,230.009171 
	C229.727570,230.151611 209.722778,248.050217 209.207611,269.052277 
	C208.488785,298.356323 209.107925,327.693176 209.075089,357.476318 
	C209.062119,363.535431 209.128586,369.134155 208.993134,374.931213 
	C208.873779,375.744843 208.956314,376.360168 209.010590,377.407104 
	C209.002670,379.568665 209.023026,381.298584 208.778351,383.339233 
	C208.696640,389.421478 208.879944,395.192993 209.027374,401.433258 
	C209.017822,407.280579 209.044144,412.659180 208.796814,418.341858 
	C208.427582,434.840332 208.323303,451.034668 208.271881,467.229156 
	C208.270050,467.805481 208.791367,468.383453 209.032593,469.367462 
	C209.019974,470.862152 209.043671,471.950012 208.794159,473.342377 
	C208.414017,485.018890 208.275787,496.390869 208.240128,507.763123 
	C208.235718,509.164124 208.778702,510.566833 208.986603,512.258667 
	C208.820816,512.730774 208.736465,512.912903 208.205475,513.079102 
	C156.848007,513.046021 105.937187,513.028931 55.026375,513.011902 
	C54.967213,494.999969 54.908051,476.988037 54.783478,458.515289 
	C54.759304,439.326599 54.800537,420.598724 54.741138,401.407166 
	C54.703762,381.950928 54.767017,362.958405 54.745895,343.506958 
	C54.722710,339.998444 54.783905,336.948792 54.848843,333.019043 
	C54.795876,330.091461 54.739162,328.043976 54.682446,325.996521 
	C54.734978,324.928864 54.787510,323.861176 54.845345,321.936310 
	C54.705517,311.685791 54.560387,302.292511 54.415260,292.899200 
z"/>
<path fill="#4A7072" opacity="1.000000" stroke="none" 
	d="
M54.935867,513.472412 
	C105.937187,513.028931 156.848007,513.046021 208.308502,513.531616 
	C208.876190,597.486023 208.886139,680.971863 208.932999,764.457703 
	C208.935699,769.280762 209.238419,774.103760 209.261597,779.380737 
	C205.894272,808.272400 229.021515,828.929626 255.799149,828.383240 
	C299.388336,827.493835 343.014771,828.580322 386.625336,828.556152 
	C494.869720,828.496094 603.114014,828.276855 711.358337,828.128418 
	C732.325317,828.099670 753.296814,827.825073 774.258057,828.164612 
	C797.304077,828.537964 821.103699,807.220947 816.222168,775.490906 
	C816.320190,750.363831 816.371155,725.699219 816.390198,701.034607 
	C816.438416,638.373169 816.472351,575.711792 816.512085,513.050354 
	C867.643616,513.045654 918.775269,513.040894 970.362549,513.056091 
	C970.874695,547.735046 970.930908,582.394104 970.988586,617.053162 
	C970.993042,619.719421 971.007935,622.385681 971.100586,625.512451 
	C971.119263,644.681458 971.055237,663.390015 971.079224,682.561890 
	C971.111633,701.701355 971.055908,720.377563 971.083496,739.514221 
	C971.122681,758.684448 971.078491,777.394165 971.122437,796.567627 
	C971.014526,802.572754 970.818542,808.114258 970.372192,814.351318 
	C969.962158,817.735840 969.802490,820.424805 969.642822,823.113708 
	C969.475342,823.839539 969.307800,824.565369 968.943115,825.966187 
	C966.639221,836.131409 964.532471,845.621521 962.425659,855.111694 
	C961.905762,856.410339 961.385864,857.708984 960.583374,859.510803 
	C960.133972,860.714172 959.967102,861.414429 959.800293,862.114624 
	C959.497559,862.744141 959.194885,863.373596 958.597900,864.503174 
	C958.146118,865.707764 957.988525,866.412231 957.830933,867.116699 
	C950.867493,883.445312 941.407715,898.241516 929.862915,912.437012 
	C923.569519,918.685913 917.685425,924.506653 911.801270,930.327393 
	C898.419434,940.845703 884.380554,950.295471 868.586670,956.889160 
	C865.980835,957.977051 863.370117,959.053040 860.090271,960.293030 
	C857.770447,961.173889 856.121948,961.896240 854.473450,962.618652 
	C854.473450,962.618591 854.168335,962.652161 853.641541,962.750244 
	C844.761292,964.980225 836.407837,967.112061 828.054321,969.243896 
	C826.987854,969.320618 825.921387,969.397339 824.149780,969.506470 
	C822.317688,969.783569 821.190735,970.028442 820.063843,970.273315 
	C818.940674,970.407532 817.817566,970.541748 816.084717,970.579590 
	C813.993591,970.698669 812.512085,970.914307 811.030579,971.129883 
	C806.667725,971.151978 802.304932,971.174133 797.486389,971.283691 
	C778.320068,971.273560 759.609436,971.176086 740.434448,971.160278 
	C721.297668,971.215820 702.625305,971.189880 683.493164,971.247681 
	C664.654053,971.251770 646.274658,971.172119 627.431519,971.178711 
	C608.296265,971.213196 589.624817,971.161438 570.492676,971.188599 
	C551.427856,971.194580 532.823792,971.087646 514.219543,971.058350 
	C495.111267,971.028320 476.002838,971.074280 456.431458,971.177490 
	C437.296692,971.225342 418.624969,971.182617 399.493530,971.223755 
	C380.654602,971.240601 362.275360,971.173645 343.431915,971.190186 
	C324.296173,971.225891 305.624634,971.177979 286.492889,971.211304 
	C267.319580,971.274536 248.606522,971.256653 229.433319,971.341187 
	C224.945557,971.313416 220.917953,971.183228 216.111786,970.889587 
	C213.503723,970.741455 211.674255,970.756836 209.449036,970.624084 
	C207.360443,970.358459 205.667603,970.240906 203.778015,969.891907 
	C203.003616,969.688416 202.425980,969.716370 201.472473,969.576782 
	C199.729996,969.353027 198.363388,969.296875 196.996765,969.240784 
	C195.968369,969.030884 194.939987,968.820984 193.355560,968.288696 
	C185.920929,966.216675 179.042313,964.467102 172.163681,962.717529 
	C157.176468,957.287659 142.722900,950.761475 129.566483,941.649414 
	C125.212189,938.633667 121.037758,935.358215 116.349876,931.738159 
	C109.393768,925.158691 102.868896,919.042664 96.344025,912.926636 
	C88.240723,900.521057 80.137428,888.115540 71.884544,875.089478 
	C71.284790,873.806702 70.834633,873.144348 70.384468,872.482056 
	C69.615440,870.547302 68.846428,868.612488 67.912224,866.066101 
	C67.327530,864.771851 66.908020,864.089233 66.488510,863.406616 
	C66.285347,862.507385 66.082191,861.608093 65.761932,860.104736 
	C65.222649,858.830444 64.800461,858.160217 64.378281,857.490051 
	C64.345779,857.144470 64.313293,856.798889 64.198822,855.812744 
	C62.362942,848.654114 60.629368,842.130493 58.841171,835.621765 
	C58.382351,833.951721 57.751221,832.328979 57.199242,830.684509 
	C57.181446,830.007507 57.163651,829.330505 57.218338,828.155029 
	C57.112980,827.121948 56.935139,826.587402 56.757294,826.052795 
	C56.749062,825.609619 56.740833,825.166443 56.723125,823.971497 
	C56.138702,818.813904 55.563755,814.408081 54.988808,810.002258 
	C54.920151,786.984741 54.851494,763.967224 54.692928,740.490784 
	C54.665993,721.318115 54.728966,702.604309 54.688782,683.430237 
	C54.649284,663.961304 54.712940,644.952759 54.678562,625.486389 
	C54.646255,606.649719 54.711983,588.270752 54.675163,569.431519 
	C54.663528,550.625122 54.754444,532.279053 54.935867,513.472412 
z"/>
<path fill="#EBEBEB" opacity="1.000000" stroke="none" 
	d="
M95.848938,912.938354 
	C102.868896,919.042664 109.393768,925.158691 116.053551,931.587891 
	C115.461594,933.489624 114.140274,935.065491 114.105835,936.668884 
	C113.905815,945.981689 113.916809,955.302368 114.060799,964.617249 
	C114.108215,967.685059 113.412102,969.054199 109.951599,969.087769 
	C94.850060,969.234253 79.752258,969.730103 64.650970,969.956299 
	C57.383663,970.065125 57.004345,969.552002 57.003716,962.450989 
	C57.002403,947.643494 57.118793,932.834412 56.924740,918.029480 
	C56.874413,914.189575 57.839298,912.800232 61.914745,912.895935 
	C73.055382,913.157776 84.206741,912.963684 95.848938,912.938354 
z"/>
<path fill="#D9E0E0" opacity="1.000000" stroke="none" 
	d="
M57.114601,831.132629 
	C57.751221,832.328979 58.382351,833.951721 58.841171,835.621765 
	C60.629368,842.130493 62.362942,848.654114 64.087799,855.575317 
	C61.976955,855.643433 59.895153,855.308411 57.413132,854.972168 
	C57.012913,854.970947 57.003029,855.000549 57.019913,854.531982 
	C57.030663,848.375427 57.024536,842.687317 57.018410,836.999268 
	C57.022259,835.193115 57.026108,833.386902 57.114601,831.132629 
z"/>
<path fill="#FEFFFF" opacity="1.000000" stroke="none" 
	d="
M188.000000,972.000000 
	C187.848190,973.235413 187.696365,974.470886 187.452560,976.454712 
	C181.208755,973.109070 176.417908,974.649780 172.305695,979.852051 
	C172.000656,976.970154 171.996902,973.941956 171.995056,970.460571 
	C172.001663,969.827881 172.006363,969.648499 172.470490,969.217346 
	C175.953827,968.998962 178.977737,969.032410 182.051422,969.433228 
	C184.067444,970.533691 186.033722,971.266846 188.000000,972.000000 
z"/>
<path fill="#D9E0E0" opacity="1.000000" stroke="none" 
	d="
M182.001663,969.065918 
	C178.977737,969.032410 175.953827,968.998962 172.479095,968.948364 
	C172.050049,967.157837 172.071823,965.384460 172.128632,963.164307 
	C179.042313,964.467102 185.920929,966.216675 192.960052,968.276550 
	C193.120575,968.586853 193.115799,968.926392 192.607574,969.010803 
	C188.733459,969.085449 185.367569,969.075684 182.001663,969.065918 
z"/>
<path fill="#D9E0E0" opacity="1.000000" stroke="none" 
	d="
M70.283386,872.816711 
	C70.834633,873.144348 71.284790,873.806702 71.716003,874.771362 
	C71.192139,874.432983 70.687218,873.792175 70.283386,872.816711 
z"/>
<path fill="#D9E0E0" opacity="1.000000" stroke="none" 
	d="
M64.272049,857.814575 
	C64.800461,858.160217 65.222649,858.830444 65.599792,859.799072 
	C65.091782,859.444763 64.628799,858.791931 64.272049,857.814575 
z"/>
<path fill="#D9E0E0" opacity="1.000000" stroke="none" 
	d="
M66.369797,863.743042 
	C66.908020,864.089233 67.327530,864.771851 67.729248,865.763184 
	C67.224670,865.407715 66.737877,864.743652 66.369797,863.743042 
z"/>
<path fill="#E7E8E8" opacity="1.000000" stroke="none" 
	d="
M968.525879,192.586365 
	C966.448364,185.935257 964.607483,178.960403 963.180054,171.532059 
	C965.397522,171.055847 967.201416,171.033157 969.005371,171.010452 
	C969.005371,171.010452 969.001221,171.000534 968.995361,170.997208 
	C968.913879,178.083466 968.838196,185.173035 968.525879,192.586365 
z"/>
<path fill="#E7E8E8" opacity="1.000000" stroke="none" 
	d="
M970.814209,209.996185 
	C970.287659,208.503693 969.850464,206.591949 969.564819,204.297531 
	C970.112061,205.802216 970.507751,207.689575 970.814209,209.996185 
z"/>
<path fill="#E7E8E8" opacity="1.000000" stroke="none" 
	d="
M969.391663,198.771194 
	C968.930664,198.144089 968.683777,197.336380 968.587036,196.217087 
	C969.026672,196.800522 969.316284,197.695557 969.391663,198.771194 
z"/>
<path fill="#E7E8E8" opacity="1.000000" stroke="none" 
	d="
M63.572357,170.919571 
	C61.840679,178.102066 60.109001,185.284561 58.078415,192.701874 
	C57.521503,185.935440 57.263500,178.934219 57.008156,171.463821 
	C57.010811,170.994659 56.998802,171.000519 57.415932,171.004868 
	C59.746162,170.979340 61.659256,170.949463 63.572357,170.919571 
z"/>
<path fill="#E7E8E8" opacity="1.000000" stroke="none" 
	d="
M57.060905,196.085922 
	C57.195705,197.599030 57.026539,199.284302 56.546501,201.172531 
	C56.409401,199.669693 56.583172,197.963882 57.060905,196.085922 
z"/>
<path fill="#E7E8E8" opacity="1.000000" stroke="none" 
	d="
M54.863945,211.158401 
	C55.231716,212.152466 55.317345,213.341995 55.189426,214.763397 
	C54.844521,213.781464 54.713161,212.567657 54.863945,211.158401 
z"/>
<path fill="#E7E8E8" opacity="1.000000" stroke="none" 
	d="
M55.850681,203.154205 
	C56.181831,204.157959 56.234921,205.348846 56.049549,206.745056 
	C55.731594,205.747360 55.652107,204.544327 55.850681,203.154205 
z"/>
<path fill="#FEFEFE" opacity="1.000000" stroke="none" 
	d="
M56.670437,837.050293 
	C57.024536,842.687317 57.030663,848.375427 57.033329,854.531494 
	C56.535774,854.754272 56.041683,854.509033 55.291878,854.163696 
	C50.351330,845.282837 50.476742,843.629028 56.670437,837.050293 
z"/>
<path fill="#D9E0E0" opacity="1.000000" stroke="none" 
	d="
M54.720001,810.266602 
	C55.563755,814.408081 56.138702,818.813904 56.589439,823.664307 
	C55.793884,819.582886 55.122540,815.056946 54.720001,810.266602 
z"/>
<path fill="#D9E0E0" opacity="1.000000" stroke="none" 
	d="
M56.553150,826.206909 
	C56.935139,826.587402 57.112980,827.121948 57.134285,827.826538 
	C56.768169,827.451294 56.558586,826.906189 56.553150,826.206909 
z"/>
<path fill="#EBEBEB" opacity="1.000000" stroke="none" 
	d="
M911.856445,930.843628 
	C917.685425,924.506653 923.569519,918.685913 929.726562,912.777954 
	C941.284241,912.790588 952.572510,913.086426 963.852112,912.889404 
	C968.099670,912.815247 969.133606,914.223999 969.083557,918.273010 
	C968.878540,934.873047 968.999573,951.477051 969.002808,968.550781 
	C950.315674,969.344604 931.626526,969.667236 912.468628,969.994873 
	C911.970520,957.119934 911.941101,944.239868 911.856445,930.843628 
z"/>
<path fill="#D9E0E0" opacity="1.000000" stroke="none" 
	d="
M962.830139,855.082642 
	C964.532471,845.621521 966.639221,836.131409 968.976318,826.342407 
	C969.124268,829.578186 968.992310,833.112610 968.970825,836.647644 
	C968.935486,842.451233 968.971924,848.255188 968.986572,854.527100 
	C967.074951,855.014648 965.154724,855.034119 962.830139,855.082642 
z"/>
<path fill="#D9E0E0" opacity="1.000000" stroke="none" 
	d="
M960.046997,861.968140 
	C959.967102,861.414429 960.133972,860.714172 960.560181,859.865479 
	C960.644348,860.418518 960.468994,861.120056 960.046997,861.968140 
z"/>
<path fill="#D9E0E0" opacity="1.000000" stroke="none" 
	d="
M958.071594,866.962769 
	C957.988525,866.412231 958.146118,865.707764 958.555542,864.851929 
	C958.642334,865.403320 958.477295,866.106018 958.071594,866.962769 
z"/>
<path fill="#EBEBEB" opacity="1.000000" stroke="none" 
	d="
M114.845978,94.859474 
	C108.743690,101.346848 102.317261,107.541168 95.120346,113.882202 
	C81.897621,114.016907 69.445374,114.004898 56.993130,113.992897 
	C56.993130,113.992897 56.999443,113.999435 57.003513,114.003418 
	C57.005352,95.316536 57.003120,76.625664 56.998657,57.465771 
	C74.278946,56.996532 91.563187,57.128155 108.842743,56.901676 
	C113.065018,56.846340 114.151703,58.185165 114.108086,62.263393 
	C113.992958,73.028366 114.351746,83.798409 114.845978,94.859474 
z"/>
<path fill="#D9E0E0" opacity="1.000000" stroke="none" 
	d="
M198.668839,56.551071 
	C190.173859,59.097458 181.391388,61.398151 172.227539,63.642281 
	C171.909927,61.677860 171.973679,59.770012 172.034332,57.446449 
	C180.814606,56.788948 189.597992,56.547165 198.668839,56.551071 
z"/>
<path fill="#D9E0E0" opacity="1.000000" stroke="none" 
	d="
M165.998291,65.189560 
	C165.668549,65.687210 165.041779,66.124695 164.129700,66.436485 
	C164.463348,65.916992 165.082321,65.523193 165.998291,65.189560 
z"/>
<path fill="#D9E0E0" opacity="1.000000" stroke="none" 
	d="
M828.333862,969.479309 
	C836.407837,967.112061 844.761292,964.980225 853.529114,962.854797 
	C853.977051,969.758667 853.992004,969.415710 846.925598,969.107361 
	C840.841980,968.841919 834.718994,969.477478 828.333862,969.479309 
z"/>
<path fill="#D9E0E0" opacity="1.000000" stroke="none" 
	d="
M811.276367,971.383667 
	C812.512085,970.914307 813.993591,970.698669 815.753296,970.660889 
	C814.528320,971.104919 813.025208,971.371155 811.276367,971.383667 
z"/>
<path fill="#D9E0E0" opacity="1.000000" stroke="none" 
	d="
M854.843567,962.717163 
	C856.121948,961.896240 857.770447,961.173889 859.762329,960.481201 
	C858.475098,961.279175 856.844360,962.047424 854.843567,962.717163 
z"/>
<path fill="#D9E0E0" opacity="1.000000" stroke="none" 
	d="
M820.278931,970.486694 
	C821.190735,970.028442 822.317688,969.783569 823.781921,969.666870 
	C822.910889,970.096680 821.702454,970.398376 820.278931,970.486694 
z"/>
<path fill="#D9E0E0" opacity="1.000000" stroke="none" 
	d="
M969.959839,822.925659 
	C969.802490,820.424805 969.962158,817.735840 970.400818,814.789062 
	C970.545532,817.266663 970.411255,820.002136 969.959839,822.925659 
z"/>
<path fill="#FEFEFE" opacity="1.000000" stroke="none" 
	d="
M910.908875,95.082672 
	C894.645874,81.662430 876.658325,71.278587 856.722229,64.333977 
	C855.953369,64.066139 855.126038,63.966343 854.121704,63.081512 
	C853.937073,60.591454 853.956726,58.808136 853.976318,57.024822 
	C853.976257,57.024822 853.986877,57.013531 853.991272,57.008507 
	C873.017273,56.998138 892.038940,56.992794 911.530273,56.993763 
	C912.000000,57.000076 912.002441,57.002739 912.002441,57.471111 
	C912.001343,68.604904 912.048340,79.270775 911.950256,89.935303 
	C911.934448,91.654137 911.272278,93.367027 910.908875,95.082672 
z"/>
<path fill="#FEFEFE" opacity="1.000000" stroke="none" 
	d="
M911.990112,55.333447 
	C922.935547,55.000420 933.878845,54.950584 944.820740,55.052803 
	C946.488525,55.068390 948.149658,55.788078 949.439270,56.586330 
	C936.710571,56.994617 924.356506,56.998676 912.002441,57.002739 
	C912.002441,57.002739 912.000000,57.000076 911.998779,56.998787 
	C911.994202,56.553761 911.990906,56.110023 911.990112,55.333447 
z"/>
<path fill="#EBEBEB" opacity="1.000000" stroke="none" 
	d="
M912.002441,57.471111 
	C924.356506,56.998676 936.710571,56.994617 949.533569,56.980652 
	C952.372192,56.975777 954.742004,56.980804 957.930786,56.988029 
	C959.499878,56.983421 960.250061,56.976620 961.000183,56.969818 
	C962.066223,56.975906 963.132263,56.981995 964.597900,56.979069 
	C966.065491,56.980301 967.133484,56.990547 968.601929,56.999557 
	C968.999756,75.688583 968.997070,94.378838 968.993652,113.538651 
	C968.992798,114.008209 969.000549,113.999428 968.534668,113.996681 
	C955.576599,114.024063 943.084412,114.054199 930.592285,114.084335 
	C924.134155,107.948822 917.675964,101.813293 911.063354,95.380219 
	C911.272278,93.367027 911.934448,91.654137 911.950256,89.935303 
	C912.048340,79.270775 912.001343,68.604904 912.002441,57.471111 
z"/>
<path fill="#FDFDFD" opacity="1.000000" stroke="none" 
	d="
M56.994728,114.462265 
	C69.445374,114.004898 81.897621,114.016907 94.849167,114.053436 
	C88.391510,124.575661 80.920059,134.777374 74.652382,145.671616 
	C70.225487,153.366287 67.430229,161.999680 63.739456,170.566772 
	C61.659256,170.949463 59.746162,170.979340 57.414120,171.010056 
	C56.995560,152.317810 56.995941,133.624710 56.994728,114.462265 
z"/>
<path fill="#FDFDFD" opacity="1.000000" stroke="none" 
	d="
M930.717651,114.417450 
	C943.084412,114.054199 955.576599,114.024063 968.538208,113.993637 
	C969.006165,132.685837 969.004578,151.378357 969.004150,170.540649 
	C967.201416,171.033157 965.397522,171.055847 963.136597,171.129028 
	C957.105225,159.356888 952.031250,147.260956 945.778320,135.808746 
	C941.682617,128.307419 935.880737,121.737610 930.717651,114.417450 
z"/>
<path fill="#D9E0E0" opacity="1.000000" stroke="none" 
	d="
M853.510254,57.028130 
	C853.956726,58.808136 853.937073,60.591454 853.856323,62.823700 
	C845.050781,61.305206 836.306335,59.337776 827.301514,57.081429 
	C829.912537,56.865116 832.783630,56.982044 835.655334,57.001022 
	C841.451416,57.039326 847.247864,57.024406 853.510254,57.028130 
z"/>
<path fill="#D9E0E0" opacity="1.000000" stroke="none" 
	d="
M825.007690,56.282829 
	C823.919739,56.508198 822.714600,56.447113 821.271362,56.105598 
	C822.319092,55.882233 823.604797,55.939304 825.007690,56.282829 
z"/>
<path fill="#D9E0E0" opacity="1.000000" stroke="none" 
	d="
M815.039795,55.181091 
	C814.572632,55.457188 813.998108,55.503071 813.203247,55.344269 
	C813.632690,55.076679 814.282532,55.013779 815.039795,55.181091 
z"/>
<path fill="#FEFFFF" opacity="1.000000" stroke="none" 
	d="
M172.000000,981.389404 
	C172.422195,982.466492 172.840225,983.931335 173.122406,985.707886 
	C172.656296,984.605469 172.326080,983.191284 172.000000,981.389404 
z"/>
<path fill="#E7E8E8" opacity="1.000000" stroke="none" 
	d="
M48.401451,342.997253 
	C48.555008,342.103455 49.108128,341.214233 49.661247,340.325012 
	C50.417336,340.989563 51.173420,341.654083 51.963531,342.654633 
	C50.932041,342.994354 49.866524,342.998077 48.401451,342.997253 
z"/>
<path fill="#D9E0E0" opacity="1.000000" stroke="none" 
	d="
M207.022705,55.326397 
	C205.517014,55.917938 203.594833,56.363079 201.276596,56.701736 
	C202.789093,56.123493 204.697647,55.651745 207.022705,55.326397 
z"/>
<path fill="#D9E0E0" opacity="1.000000" stroke="none" 
	d="
M218.737549,54.722458 
	C217.189026,55.173950 215.380707,55.363674 213.274628,55.365128 
	C214.810501,54.938133 216.644135,54.699409 218.737549,54.722458 
z"/>
<path fill="#E7E8E8" opacity="1.000000" stroke="none" 
	d="
M45.416248,625.949585 
	C45.914291,621.809814 48.200260,622.919189 50.802586,624.731262 
	C49.277023,625.328491 47.547565,625.647583 45.416248,625.949585 
z"/>
<path fill="#FEFEFE" opacity="1.000000" stroke="none" 
	d="
M944.392944,1009.954468 
	C944.790100,1009.712158 945.185242,1009.713806 945.578125,1009.744080 
	C945.589172,1009.744934 945.576660,1010.051208 945.575195,1010.215027 
	C945.180359,1010.210815 944.785461,1010.206665 944.392944,1009.954468 
z"/>
<path fill="#FEFFFF" opacity="1.000000" stroke="none" 
	d="
M203.974762,970.123352 
	C205.667603,970.240906 207.360443,970.358459 209.475098,970.817261 
	C209.979294,971.407227 210.024002,971.662354 210.031067,971.924133 
	C209.325897,973.890625 208.620728,975.857178 207.915558,977.823669 
	C205.282196,976.130554 202.648834,974.437378 200.309662,972.349548 
	C201.073608,971.624146 201.543381,971.293457 202.298843,970.954346 
	C203.047943,970.671753 203.511353,970.397583 203.974762,970.123352 
z"/>
<path fill="#FEFEFE" opacity="1.000000" stroke="none" 
	d="
M182.051422,969.433228 
	C185.367569,969.075684 188.733459,969.085449 192.554016,969.171936 
	C191.589386,970.165527 190.170105,971.082397 188.375412,971.999634 
	C186.033722,971.266846 184.067444,970.533691 182.051422,969.433228 
z"/>
<path fill="#FEFEFE" opacity="1.000000" stroke="none" 
	d="
M202.013153,970.962708 
	C201.543381,971.293457 201.073608,971.624146 200.301926,971.977417 
	C199.006500,971.315979 198.012985,970.632019 197.008118,969.594421 
	C198.363388,969.296875 199.729996,969.353027 201.492065,969.780762 
	C201.960968,970.417603 202.002853,970.687744 202.013153,970.962708 
z"/>
<path fill="#D9E0E0" opacity="1.000000" stroke="none" 
	d="
M210.425446,971.937988 
	C210.024002,971.662354 209.979294,971.407227 209.870850,970.965454 
	C211.674255,970.756836 213.503723,970.741455 215.649353,970.943726 
	C214.250275,971.424866 212.535065,971.688354 210.425446,971.937988 
z"/>
<path fill="#FDFDFD" opacity="1.000000" stroke="none" 
	d="
M987.660889,983.622803 
	C988.423950,982.342041 988.997803,981.361511 989.571655,980.380981 
	C989.262634,980.788269 988.953552,981.195496 988.644531,981.602722 
	C991.718079,984.893921 994.791687,988.185120 997.865234,991.476318 
	C997.988159,990.501953 998.111145,989.527649 998.234070,988.553284 
	C995.009827,991.693542 991.785522,994.833801 989.979248,996.593018 
	C988.442322,994.800476 985.505005,991.374756 982.567688,987.949036 
	C981.876465,988.641357 981.185242,989.333740 980.494019,990.026062 
	C982.819885,987.991760 985.145752,985.957397 987.660889,983.622803 
z"/>
<path fill="#EBEBEB" opacity="1.000000" stroke="none" 
	d="
M54.010178,292.968536 
	C54.560387,302.292511 54.705517,311.685791 54.764156,321.541748 
	C52.521469,322.001831 50.324158,322.251404 48.223431,321.908783 
	C46.806759,321.677704 44.496841,320.719635 44.409729,319.894348 
	C44.251862,318.398834 45.034542,315.892548 46.168602,315.342712 
	C49.604160,313.677002 49.561958,311.805878 47.735176,309.046021 
	C47.241653,308.300385 46.869373,306.983337 47.192738,306.268372 
	C49.211620,301.804565 51.443661,297.437195 54.010178,292.968536 
z"/>
<path fill="#EBEBEB" opacity="1.000000" stroke="none" 
	d="
M54.326874,326.007568 
	C54.739162,328.043976 54.795876,330.091461 54.766819,332.570923 
	C53.520943,331.724365 51.974873,330.595795 51.390938,329.093323 
	C51.157745,328.493317 53.047779,327.068146 54.326874,326.007568 
z"/>
<path fill="#FEFEFE" opacity="1.000000" stroke="none" 
	d="
M960.948853,56.639435 
	C960.250061,56.976620 959.499878,56.983421 958.374756,56.980659 
	C958.965698,56.750412 959.931641,56.529728 960.948853,56.639435 
z"/>
<path fill="#F7E8D6" opacity="1.000000" stroke="none" 
	d="
M816.437866,512.601379 
	C816.472351,575.711792 816.438416,638.373169 816.390198,701.034607 
	C816.371155,725.699219 816.320190,750.363831 815.917297,775.728394 
	C815.108643,778.181519 814.582825,779.918335 814.237671,781.690369 
	C811.080322,797.899658 789.485535,812.071411 771.810791,812.060425 
	C600.517822,811.954529 429.224731,812.028748 257.931824,811.867554 
	C251.263306,811.861267 244.229996,811.021545 238.005508,808.788940 
	C225.171814,804.185791 215.264618,795.906799 211.140930,782.140320 
	C210.798706,780.997986 209.992279,779.994690 209.401520,778.926758 
	C209.238419,774.103760 208.935699,769.280762 208.932999,764.457703 
	C208.886139,680.971863 208.876190,597.486023 208.755142,513.547607 
	C208.736465,512.912903 208.820816,512.730774 209.269394,511.959595 
	C209.734940,499.162262 209.848114,486.953979 209.900040,474.745422 
	C209.902435,474.177460 209.357422,473.607117 209.067352,473.037903 
	C209.043671,471.950012 209.019974,470.862152 209.314529,469.069183 
	C209.734848,452.159546 209.845901,435.954987 209.901993,419.750275 
	C209.903976,419.180420 209.359970,418.608643 209.070435,418.037750 
	C209.044144,412.659180 209.017822,407.280579 209.310028,401.135468 
	C209.433517,394.588776 209.238449,388.808655 209.043381,383.028503 
	C209.023026,381.298584 209.002670,379.568665 209.245575,377.250275 
	C209.687881,376.138031 209.866943,375.614288 210.506226,375.012634 
	C295.425537,374.903687 379.884583,374.845459 464.343658,374.848114 
	C581.786743,374.851776 699.229858,374.901001 816.672974,374.930725 
	C816.549316,394.560608 816.315613,414.190613 816.336182,433.820343 
	C816.353210,450.123322 816.765137,466.425659 816.817444,482.728882 
	C816.848938,492.536133 816.526855,502.344513 816.437866,512.601379 
M512.500000,599.750427 
	C499.839935,599.770264 487.179657,599.751953 474.519897,599.824951 
	C467.501770,599.865417 464.338715,602.834534 464.314087,609.838562 
	C464.228516,634.158752 464.260620,658.479492 464.328247,682.799805 
	C464.344452,688.618652 467.830750,691.980896 473.720184,691.987488 
	C498.706970,692.015564 523.693909,692.008789 548.680603,691.953796 
	C555.124817,691.939575 558.069214,688.969055 558.089233,682.433289 
	C558.163086,658.279541 558.190002,634.125549 558.165100,609.971741 
	C558.157227,602.298889 555.572571,599.739929 547.981812,599.716309 
	C536.488037,599.680603 524.993958,599.733337 512.500000,599.750427 
M279.053040,743.500000 
	C279.052795,752.165405 278.971741,760.831726 279.078064,769.495850 
	C279.161896,776.332092 281.796906,778.939941 288.439728,778.950378 
	C306.603638,778.978943 324.767731,778.984985 342.931610,778.938232 
	C349.341278,778.921692 352.036194,776.203247 352.041290,769.901550 
	C352.056213,751.570923 352.049438,733.240356 352.023804,714.909729 
	C352.014099,707.983215 350.035675,705.989563 343.152039,705.981445 
	C324.821442,705.959839 306.490814,705.965698 288.160187,705.976501 
	C281.789551,705.980286 279.105194,708.601746 279.065460,715.004150 
	C279.008636,724.169128 279.052460,733.334717 279.053040,743.500000 
M318.500000,609.044861 
	C308.667450,609.045105 298.834839,609.033142 289.002319,609.049744 
	C281.856476,609.061890 279.126953,611.507141 279.090820,618.461914 
	C278.995575,636.793274 279.012878,655.125671 279.080688,673.457214 
	C279.102783,679.429810 281.959747,682.035889 288.103149,682.041016 
	C306.601654,682.056396 325.100189,682.062256 343.598694,682.051208 
	C350.046173,682.047424 352.002594,680.189758 352.016235,673.818970 
	C352.055786,655.320557 352.046936,636.821960 352.005737,618.323486 
	C351.991028,611.706665 349.257111,609.078674 342.498138,609.050537 
	C334.832214,609.018616 327.166046,609.044067 318.500000,609.044861 
M634.323975,705.963196 
	C616.504150,705.964905 598.684265,705.954407 580.864441,705.975403 
	C575.105896,705.982239 572.106384,708.689026 572.081543,714.287598 
	C571.999634,732.773193 571.981323,751.259888 572.091492,769.745178 
	C572.131531,776.451904 574.898376,778.944580 581.686035,778.953125 
	C599.505859,778.975464 617.325623,778.979065 635.145447,778.959717 
	C642.450562,778.951782 644.954163,776.398315 644.961243,769.010132 
	C644.978271,751.190308 644.980591,733.370483 644.975586,715.550659 
	C644.973389,707.698730 643.298401,706.059448 634.323975,705.963196 
M547.938538,732.500244 
	C547.936523,726.669861 548.061523,720.835999 547.898560,715.010132 
	C547.717041,708.521179 545.085205,706.029846 538.588928,706.018188 
	C520.265076,705.985352 501.941040,705.993835 483.617188,706.028564 
	C476.704315,706.041626 474.953369,707.788086 474.951111,714.487244 
	C474.944916,732.811157 474.950378,751.135132 474.961060,769.459045 
	C474.965149,776.459595 477.461853,778.953247 484.591919,778.963135 
	C502.249512,778.987488 519.907166,778.977539 537.564758,778.968567 
	C545.468994,778.964539 547.898315,776.530945 547.923584,768.482178 
	C547.960266,756.821533 547.936096,745.160828 547.938538,732.500244 
M442.962860,705.981384 
	C423.802094,705.981384 404.641266,705.963745 385.480560,705.991821 
	C379.635132,706.000427 377.042145,708.620850 377.033020,714.519287 
	C377.004761,732.846985 377.002319,751.174683 377.031067,769.502380 
	C377.041718,776.285767 379.643646,778.936890 386.327240,778.949524 
	C404.488281,778.983887 422.649475,778.986877 440.810486,778.951111 
	C447.194550,778.938599 449.936096,776.217651 449.952179,769.835571 
	C449.998749,751.341370 449.915894,732.846680 450.020569,714.352905 
	C450.046143,709.835205 448.057404,707.187012 442.962860,705.981384 
M352.032501,576.241089 
	C352.028046,557.923950 352.043823,539.606812 352.006927,521.289734 
	C351.995789,515.768250 349.281921,513.011169 343.814392,513.001343 
	C324.997803,512.967651 306.181091,512.978516 287.364502,513.007874 
	C282.511475,513.015442 279.168060,515.707275 279.132202,520.326294 
	C278.983429,539.474731 278.952362,558.626282 279.147095,577.773926 
	C279.204529,583.418518 282.141968,585.924622 287.714996,585.940125 
	C306.198456,585.991577 324.682281,585.987915 343.165741,585.934082 
	C349.216797,585.916443 351.797852,583.257996 352.032501,576.241089 
M449.976074,567.486328 
	C449.976349,552.488098 450.001404,537.489746 449.965973,522.491577 
	C449.949493,515.518677 447.340729,512.991089 440.305969,512.988098 
	C421.974762,512.980286 403.643555,512.969421 385.312408,513.000366 
	C380.251923,513.008911 377.109314,515.828308 377.080933,520.859009 
	C376.972809,540.022827 376.971558,559.187927 377.084259,578.351685 
	C377.111267,582.945679 380.071198,585.888428 384.675781,585.914978 
	C403.839539,586.025269 423.004669,586.022339 442.168488,585.918640 
	C446.964447,585.892700 449.757660,582.865234 449.956055,577.976807 
	C450.084351,574.815735 449.978119,571.645203 449.976074,567.486328 
M377.019043,620.681519 
	C377.019012,638.180420 377.006042,655.679260 377.025391,673.178162 
	C377.032990,680.066895 379.011597,682.029480 385.964172,682.036743 
	C404.296326,682.056030 422.628479,682.051697 440.960632,682.037476 
	C447.034760,682.032776 449.911255,679.374023 449.935425,673.383789 
	C450.008606,655.218628 450.003082,637.052795 449.942719,618.887512 
	C449.921356,612.460693 446.434753,609.057190 440.116882,609.052856 
	C422.618011,609.040771 405.119141,609.056763 387.620270,609.064087 
	C379.252777,609.067566 377.069061,611.269287 377.019043,620.681519 
M589.514832,513.000549 
	C586.684143,513.001953 583.853394,512.991516 581.022766,513.007202 
	C575.207581,513.039429 572.202637,515.430420 572.141052,521.247803 
	C571.941772,540.061401 571.951294,558.879700 572.143982,577.693481 
	C572.201965,583.362244 575.121216,585.929382 580.637451,585.947205 
	C599.286560,586.007507 617.936218,586.012634 636.585205,585.936462 
	C642.029358,585.914185 644.918701,583.022705 644.939819,577.571167 
	C645.012573,558.755676 645.021484,539.939331 644.928162,521.124023 
	C644.901550,515.761658 641.883179,513.009644 636.466614,513.000671 
	C621.147583,512.975159 605.828491,512.996887 589.514832,513.000549 
M630.413330,609.057861 
	C614.580139,609.058594 598.746887,609.045044 582.913696,609.066162 
	C575.150574,609.076477 571.996460,612.185120 572.092957,620.015686 
	C572.316406,638.150696 572.628418,656.284912 572.962219,674.418335 
	C573.065979,680.057434 575.197144,682.029907 581.004395,682.034729 
	C599.337524,682.049866 617.670715,682.044922 636.003845,682.023560 
	C642.062988,682.016541 644.916443,679.328308 644.936829,673.334106 
	C644.999756,654.834473 644.993408,636.334473 644.947327,617.834778 
	C644.933350,612.203552 642.488525,609.617737 636.876465,609.108093 
	C635.057495,608.942932 633.212219,609.067566 630.413330,609.057861 
M488.597290,585.966248 
	C504.905090,585.964172 521.213745,585.863464 537.520325,586.001038 
	C545.837402,586.071167 547.594543,581.244385 547.631287,574.475830 
	C547.645569,571.840088 547.102905,569.202881 547.093384,566.565247 
	C547.038818,551.422546 547.085571,536.279480 547.060791,521.136536 
	C547.050415,514.810425 545.311035,512.999207 539.199036,512.992371 
	C520.561584,512.971558 501.924072,512.973877 483.286682,513.012817 
	C477.404694,513.025146 474.986572,515.337646 474.972687,521.070557 
	C474.926758,540.040710 474.931946,559.011108 474.978516,577.981262 
	C474.990082,582.694336 477.869141,585.604675 482.643188,585.932312 
	C484.299774,586.045959 485.970062,585.960266 488.597290,585.966248 
M428.497986,489.067780 
	C432.657410,489.069305 436.816925,489.087646 440.976227,489.068298 
	C447.185760,489.039398 449.947693,486.301666 449.961884,479.919830 
	C450.002533,461.618591 449.994568,443.317169 449.954498,425.015930 
	C449.943207,419.863068 447.134338,416.990479 442.044617,416.979187 
	C422.911499,416.936829 403.778137,416.929779 384.645111,416.990356 
	C379.308655,417.007263 377.048279,419.257446 377.031189,424.603119 
	C376.970520,443.569733 376.966583,462.536835 377.042175,481.503357 
	C377.064606,487.135040 379.225677,489.050629 385.073090,489.058899 
	C399.214996,489.078949 413.356934,489.066895 428.497986,489.067780 
M669.969116,668.436523 
	C669.968445,669.767700 669.965088,671.098816 669.967529,672.429993 
	C669.981812,680.263123 671.762085,682.032104 679.648987,682.031799 
	C697.453003,682.031189 715.257080,682.039734 733.061096,682.017151 
	C740.398254,682.007812 742.048828,680.305603 742.052307,672.875549 
	C742.060913,654.738708 742.065186,636.601929 742.061646,618.465088 
	C742.060303,611.750977 739.503052,609.075500 732.854065,609.060059 
	C714.717346,609.017944 696.580444,609.026489 678.443604,609.050720 
	C672.602539,609.058533 669.985107,611.684204 669.976196,617.536072 
	C669.950867,634.175354 669.968506,650.814697 669.969116,668.436523 
M573.460144,420.176514 
	C572.997986,421.580231 572.140137,422.982086 572.133423,424.387970 
	C572.042480,443.376526 571.993652,462.366150 572.119629,481.354279 
	C572.152527,486.311737 575.371460,489.015991 580.501526,489.054840 
	C585.664917,489.093933 590.829895,488.996094 595.992310,489.077942 
	C609.121948,489.286041 622.250244,489.576965 635.379639,489.802734 
	C642.188538,489.919800 644.926392,487.189758 644.947083,480.023956 
	C645.000061,461.701355 644.984009,443.378510 644.947205,425.055817 
	C644.936768,419.863342 642.159729,416.991730 637.058594,416.980011 
	C618.069702,416.936340 599.079834,416.890289 580.092773,417.083862 
	C578.046875,417.104706 576.016907,418.681549 573.460144,420.176514 
M697.500000,585.958374 
	C709.314453,585.958313 721.129150,585.995911 732.943359,585.943115 
	C739.322449,585.914551 742.046509,583.175720 742.052307,576.917908 
	C742.069275,558.447388 742.064758,539.976929 742.052979,521.506409 
	C742.048706,514.836243 740.253357,513.024902 733.419617,513.011963 
	C715.115540,512.977295 696.811401,512.985901 678.507263,513.012146 
	C672.640564,513.020569 669.998047,515.640381 669.991943,521.453552 
	C669.972229,540.090454 669.975952,558.727356 670.008484,577.364258 
	C670.018372,583.036072 672.798096,585.854248 678.529114,585.939575 
	C684.518188,586.028870 690.509705,585.958801 697.500000,585.958374 
M717.499878,416.960480 
	C704.174377,416.961151 690.848755,416.939697 677.523315,416.972870 
	C671.879150,416.986938 669.990845,418.827637 669.982117,424.390930 
	C669.952271,443.379700 669.959473,462.368561 669.989197,481.357330 
	C669.998169,487.067596 673.460144,490.177612 679.117798,489.906586 
	C686.410645,489.557312 693.711182,489.089691 701.005981,489.128021 
	C711.469238,489.182983 721.928894,489.771759 732.392883,489.893646 
	C738.734558,489.967560 742.007263,487.337555 742.026245,482.356659 
	C742.101135,462.701874 742.075623,443.046600 742.040283,423.391571 
	C742.032593,419.128479 739.727600,416.984650 735.489746,416.965088 
	C729.826538,416.938904 724.163086,416.959412 717.499878,416.960480 
M474.960083,454.500000 
	C474.959869,462.825775 474.943878,471.151581 474.963806,479.477325 
	C474.983673,487.787933 478.728271,490.980408 486.877960,489.823822 
	C489.657654,489.429382 492.475769,489.114563 495.277893,489.101562 
	C509.930878,489.033600 524.584412,489.094971 539.237671,489.067230 
	C545.156799,489.056030 547.047546,487.207703 547.057800,481.365997 
	C547.090759,462.549866 547.086304,443.733643 547.063171,424.917480 
	C547.055481,418.689392 545.313782,416.977264 539.007935,416.971283 
	C520.358276,416.953613 501.708557,416.958008 483.058868,416.980377 
	C477.034088,416.987610 475.014679,418.961273 474.975189,425.026062 
	C474.913391,434.516998 474.959595,444.008636 474.960083,454.500000 
z"/>
<path fill="#E9563B" opacity="1.000000" stroke="none" 
	d="
M209.154510,357.015991 
	C209.107925,327.693176 208.488785,298.356323 209.207611,269.052277 
	C209.722778,248.050217 229.727570,230.151611 251.365692,230.009171 
	C282.692291,229.802963 314.020996,229.885422 345.348785,229.884766 
	C487.323944,229.881821 629.299316,230.015320 771.273987,229.764603 
	C792.119324,229.727798 810.404297,243.453140 815.163879,262.270660 
	C816.014709,265.634827 816.700867,269.150055 816.716248,272.598846 
	C816.839905,300.425598 816.784851,328.253113 816.256287,356.543884 
	C808.272644,357.331543 800.818726,357.883606 793.361267,357.935425 
	C774.156250,358.068939 754.949707,358.016663 735.743835,357.975891 
	C589.782898,357.665863 443.822052,357.301941 297.860992,357.068329 
	C279.079681,357.038269 260.298035,357.832672 241.515137,357.913086 
	C230.729736,357.959290 219.941483,357.337219 209.154510,357.015991 
z"/>
<path fill="#C84532" opacity="1.000000" stroke="none" 
	d="
M209.075089,357.476349 
	C219.941483,357.337219 230.729736,357.959290 241.515137,357.913086 
	C260.298035,357.832672 279.079681,357.038269 297.860992,357.068329 
	C443.822052,357.301941 589.782898,357.665863 735.743835,357.975891 
	C754.949707,358.016663 774.156250,358.068939 793.361267,357.935425 
	C800.818726,357.883606 808.272644,357.331543 816.148132,356.999390 
	C816.641724,362.664429 816.715332,368.337494 816.730957,374.470642 
	C699.229858,374.901001 581.786743,374.851776 464.343658,374.848114 
	C379.884583,374.845459 295.425537,374.903687 210.308990,374.885803 
	C209.651535,374.836853 209.195038,374.732910 209.195038,374.732910 
	C209.128586,369.134155 209.062119,363.535431 209.075089,357.476349 
z"/>
<path fill="#DFCFBC" opacity="1.000000" stroke="none" 
	d="
M208.796814,418.341858 
	C209.359970,418.608643 209.903976,419.180420 209.901993,419.750275 
	C209.845901,435.954987 209.734848,452.159546 209.350830,468.662384 
	C208.791367,468.383453 208.270050,467.805481 208.271881,467.229156 
	C208.323303,451.034668 208.427582,434.840332 208.796814,418.341858 
z"/>
<path fill="#DFCFBC" opacity="1.000000" stroke="none" 
	d="
M208.794159,473.342377 
	C209.357422,473.607117 209.902435,474.177460 209.900040,474.745422 
	C209.848114,486.953979 209.734940,499.162262 209.350830,511.669678 
	C208.778702,510.566833 208.235718,509.164124 208.240128,507.763123 
	C208.275787,496.390869 208.414017,485.018890 208.794159,473.342377 
z"/>
<path fill="#DFCFBC" opacity="1.000000" stroke="none" 
	d="
M208.778351,383.339233 
	C209.238449,388.808655 209.433517,394.588776 209.345901,400.666718 
	C208.879944,395.192993 208.696640,389.421478 208.778351,383.339233 
z"/>
<path fill="#DFCFBC" opacity="1.000000" stroke="none" 
	d="
M208.993134,374.931213 
	C209.195038,374.732910 209.651535,374.836853 209.848755,374.963684 
	C209.866943,375.614288 209.687881,376.138031 209.273834,376.818634 
	C208.956314,376.360168 208.873779,375.744843 208.993134,374.931213 
z"/>
<path fill="#DFCFBC" opacity="1.000000" stroke="none" 
	d="
M209.261597,779.380737 
	C209.992279,779.994690 210.798706,780.997986 211.140930,782.140320 
	C215.264618,795.906799 225.171814,804.185791 238.005508,808.788940 
	C244.229996,811.021545 251.263306,811.861267 257.931824,811.867554 
	C429.224731,812.028748 600.517822,811.954529 771.810791,812.060425 
	C789.485535,812.071411 811.080322,797.899658 814.237671,781.690369 
	C814.582825,779.918335 815.108643,778.181519 815.855591,776.190857 
	C821.103699,807.220947 797.304077,828.537964 774.258057,828.164612 
	C753.296814,827.825073 732.325317,828.099670 711.358337,828.128418 
	C603.114014,828.276855 494.869720,828.496094 386.625336,828.556152 
	C343.014771,828.580322 299.388336,827.493835 255.799149,828.383240 
	C229.021515,828.929626 205.894272,808.272400 209.261597,779.380737 
z"/>
<path fill="#D9E0E0" opacity="1.000000" stroke="none" 
	d="
M202.298828,970.954346 
	C202.002853,970.687744 201.960968,970.417603 201.867920,969.948364 
	C202.425980,969.716370 203.003616,969.688416 203.778015,969.891907 
	C203.511353,970.397583 203.047943,970.671753 202.298828,970.954346 
z"/>
<path fill="#EA5539" opacity="1.000000" stroke="none" 
	d="
M513.000000,599.749512 
	C524.993958,599.733337 536.488037,599.680603 547.981812,599.716309 
	C555.572571,599.739929 558.157227,602.298889 558.165100,609.971741 
	C558.190002,634.125549 558.163086,658.279541 558.089233,682.433289 
	C558.069214,688.969055 555.124817,691.939575 548.680603,691.953796 
	C523.693909,692.008789 498.706970,692.015564 473.720184,691.987488 
	C467.830750,691.980896 464.344452,688.618652 464.328247,682.799805 
	C464.260620,658.479492 464.228516,634.158752 464.314087,609.838562 
	C464.338715,602.834534 467.501770,599.865417 474.519897,599.824951 
	C487.179657,599.751953 499.839935,599.770264 513.000000,599.749512 
z"/>
<path fill="#F8BE98" opacity="1.000000" stroke="none" 
	d="
M279.053162,743.000000 
	C279.052460,733.334717 279.008636,724.169128 279.065460,715.004150 
	C279.105194,708.601746 281.789551,705.980286 288.160187,705.976501 
	C306.490814,705.965698 324.821442,705.959839 343.152039,705.981445 
	C350.035675,705.989563 352.014099,707.983215 352.023804,714.909729 
	C352.049438,733.240356 352.056213,751.570923 352.041290,769.901550 
	C352.036194,776.203247 349.341278,778.921692 342.931610,778.938232 
	C324.767731,778.984985 306.603638,778.978943 288.439728,778.950378 
	C281.796906,778.939941 279.161896,776.332092 279.078064,769.495850 
	C278.971741,760.831726 279.052795,752.165405 279.053162,743.000000 
z"/>
<path fill="#F8BE98" opacity="1.000000" stroke="none" 
	d="
M319.000000,609.044739 
	C327.166046,609.044067 334.832214,609.018616 342.498138,609.050537 
	C349.257111,609.078674 351.991028,611.706665 352.005737,618.323486 
	C352.046936,636.821960 352.055786,655.320557 352.016235,673.818970 
	C352.002594,680.189758 350.046173,682.047424 343.598694,682.051208 
	C325.100189,682.062256 306.601654,682.056396 288.103149,682.041016 
	C281.959747,682.035889 279.102783,679.429810 279.080688,673.457214 
	C279.012878,655.125671 278.995575,636.793274 279.090820,618.461914 
	C279.126953,611.507141 281.856476,609.061890 289.002319,609.049744 
	C298.834839,609.033142 308.667450,609.045105 319.000000,609.044739 
z"/>
<path fill="#F8BF98" opacity="1.000000" stroke="none" 
	d="
M634.796021,705.963501 
	C643.298401,706.059448 644.973389,707.698730 644.975586,715.550659 
	C644.980591,733.370483 644.978271,751.190308 644.961243,769.010132 
	C644.954163,776.398315 642.450562,778.951782 635.145447,778.959717 
	C617.325623,778.979065 599.505859,778.975464 581.686035,778.953125 
	C574.898376,778.944580 572.131531,776.451904 572.091492,769.745178 
	C571.981323,751.259888 571.999634,732.773193 572.081543,714.287598 
	C572.106384,708.689026 575.105896,705.982239 580.864441,705.975403 
	C598.684265,705.954407 616.504150,705.964905 634.796021,705.963501 
z"/>
<path fill="#F8BE97" opacity="1.000000" stroke="none" 
	d="
M547.938232,733.000183 
	C547.936096,745.160828 547.960266,756.821533 547.923584,768.482178 
	C547.898315,776.530945 545.468994,778.964539 537.564758,778.968567 
	C519.907166,778.977539 502.249512,778.987488 484.591919,778.963135 
	C477.461853,778.953247 474.965149,776.459595 474.961060,769.459045 
	C474.950378,751.135132 474.944916,732.811157 474.951111,714.487244 
	C474.953369,707.788086 476.704315,706.041626 483.617188,706.028564 
	C501.941040,705.993835 520.265076,705.985352 538.588928,706.018188 
	C545.085205,706.029846 547.717041,708.521179 547.898560,715.010132 
	C548.061523,720.835999 547.936523,726.669861 547.938232,733.000183 
z"/>
<path fill="#F8BE97" opacity="1.000000" stroke="none" 
	d="
M443.399902,705.991455 
	C448.057404,707.187012 450.046143,709.835205 450.020569,714.352905 
	C449.915894,732.846680 449.998749,751.341370 449.952179,769.835571 
	C449.936096,776.217651 447.194550,778.938599 440.810486,778.951111 
	C422.649475,778.986877 404.488281,778.983887 386.327240,778.949524 
	C379.643646,778.936890 377.041718,776.285767 377.031067,769.502380 
	C377.002319,751.174683 377.004761,732.846985 377.033020,714.519287 
	C377.042145,708.620850 379.635132,706.000427 385.480560,705.991821 
	C404.641266,705.963745 423.802094,705.981384 443.399902,705.991455 
z"/>
<path fill="#F8BF98" opacity="1.000000" stroke="none" 
	d="
M352.031372,576.703003 
	C351.797852,583.257996 349.216797,585.916443 343.165741,585.934082 
	C324.682281,585.987915 306.198456,585.991577 287.714996,585.940125 
	C282.141968,585.924622 279.204529,583.418518 279.147095,577.773926 
	C278.952362,558.626282 278.983429,539.474731 279.132202,520.326294 
	C279.168060,515.707275 282.511475,513.015442 287.364502,513.007874 
	C306.181091,512.978516 324.997803,512.967651 343.814392,513.001343 
	C349.281921,513.011169 351.995789,515.768250 352.006927,521.289734 
	C352.043823,539.606812 352.028046,557.923950 352.031372,576.703003 
z"/>
<path fill="#F8BE97" opacity="1.000000" stroke="none" 
	d="
M449.976532,567.982605 
	C449.978119,571.645203 450.084351,574.815735 449.956055,577.976807 
	C449.757660,582.865234 446.964447,585.892700 442.168488,585.918640 
	C423.004669,586.022339 403.839539,586.025269 384.675781,585.914978 
	C380.071198,585.888428 377.111267,582.945679 377.084259,578.351685 
	C376.971558,559.187927 376.972809,540.022827 377.080933,520.859009 
	C377.109314,515.828308 380.251923,513.008911 385.312408,513.000366 
	C403.643555,512.969421 421.974762,512.980286 440.305969,512.988098 
	C447.340729,512.991089 449.949493,515.518677 449.965973,522.491577 
	C450.001404,537.489746 449.976349,552.488098 449.976532,567.982605 
z"/>
<path fill="#F8BE97" opacity="1.000000" stroke="none" 
	d="
M377.018860,620.210815 
	C377.069061,611.269287 379.252777,609.067566 387.620270,609.064087 
	C405.119141,609.056763 422.618011,609.040771 440.116882,609.052856 
	C446.434753,609.057190 449.921356,612.460693 449.942719,618.887512 
	C450.003082,637.052795 450.008606,655.218628 449.935425,673.383789 
	C449.911255,679.374023 447.034760,682.032776 440.960632,682.037476 
	C422.628479,682.051697 404.296326,682.056030 385.964172,682.036743 
	C379.011597,682.029480 377.032990,680.066895 377.025391,673.178162 
	C377.006042,655.679260 377.019012,638.180420 377.018860,620.210815 
z"/>
<path fill="#F8BF98" opacity="1.000000" stroke="none" 
	d="
M590.012085,513.000244 
	C605.828491,512.996887 621.147583,512.975159 636.466614,513.000671 
	C641.883179,513.009644 644.901550,515.761658 644.928162,521.124023 
	C645.021484,539.939331 645.012573,558.755676 644.939819,577.571167 
	C644.918701,583.022705 642.029358,585.914185 636.585205,585.936462 
	C617.936218,586.012634 599.286560,586.007507 580.637451,585.947205 
	C575.121216,585.929382 572.201965,583.362244 572.143982,577.693481 
	C571.951294,558.879700 571.941772,540.061401 572.141052,521.247803 
	C572.202637,515.430420 575.207581,513.039429 581.022766,513.007202 
	C583.853394,512.991516 586.684143,513.001953 590.012085,513.000244 
z"/>
<path fill="#F8BF98" opacity="1.000000" stroke="none" 
	d="
M630.896118,609.058716 
	C633.212219,609.067566 635.057495,608.942932 636.876465,609.108093 
	C642.488525,609.617737 644.933350,612.203552 644.947327,617.834778 
	C644.993408,636.334473 644.999756,654.834473 644.936829,673.334106 
	C644.916443,679.328308 642.062988,682.016541 636.003845,682.023560 
	C617.670715,682.044922 599.337524,682.049866 581.004395,682.034729 
	C575.197144,682.029907 573.065979,680.057434 572.962219,674.418335 
	C572.628418,656.284912 572.316406,638.150696 572.092957,620.015686 
	C571.996460,612.185120 575.150574,609.076477 582.913696,609.066162 
	C598.746887,609.045044 614.580139,609.058594 630.896118,609.058716 
z"/>
<path fill="#F8BE97" opacity="1.000000" stroke="none" 
	d="
M488.115692,585.965942 
	C485.970062,585.960266 484.299774,586.045959 482.643188,585.932312 
	C477.869141,585.604675 474.990082,582.694336 474.978516,577.981262 
	C474.931946,559.011108 474.926758,540.040710 474.972687,521.070557 
	C474.986572,515.337646 477.404694,513.025146 483.286682,513.012817 
	C501.924072,512.973877 520.561584,512.971558 539.199036,512.992371 
	C545.311035,512.999207 547.050415,514.810425 547.060791,521.136536 
	C547.085571,536.279480 547.038818,551.422546 547.093384,566.565247 
	C547.102905,569.202881 547.645569,571.840088 547.631287,574.475830 
	C547.594543,581.244385 545.837402,586.071167 537.520325,586.001038 
	C521.213745,585.863464 504.905090,585.964172 488.115692,585.965942 
z"/>
<path fill="#F8BE97" opacity="1.000000" stroke="none" 
	d="
M427.998413,489.067810 
	C413.356934,489.066895 399.214996,489.078949 385.073090,489.058899 
	C379.225677,489.050629 377.064606,487.135040 377.042175,481.503357 
	C376.966583,462.536835 376.970520,443.569733 377.031189,424.603119 
	C377.048279,419.257446 379.308655,417.007263 384.645111,416.990356 
	C403.778137,416.929779 422.911499,416.936829 442.044617,416.979187 
	C447.134338,416.990479 449.943207,419.863068 449.954498,425.015930 
	C449.994568,443.317169 450.002533,461.618591 449.961884,479.919830 
	C449.947693,486.301666 447.185760,489.039398 440.976227,489.068298 
	C436.816925,489.087646 432.657410,489.069305 427.998413,489.067810 
z"/>
<path fill="#F8BE98" opacity="1.000000" stroke="none" 
	d="
M669.969238,667.945251 
	C669.968506,650.814697 669.950867,634.175354 669.976196,617.536072 
	C669.985107,611.684204 672.602539,609.058533 678.443604,609.050720 
	C696.580444,609.026489 714.717346,609.017944 732.854065,609.060059 
	C739.503052,609.075500 742.060303,611.750977 742.061646,618.465088 
	C742.065186,636.601929 742.060913,654.738708 742.052307,672.875549 
	C742.048828,680.305603 740.398254,682.007812 733.061096,682.017151 
	C715.257080,682.039734 697.453003,682.031189 679.648987,682.031799 
	C671.762085,682.032104 669.981812,680.263123 669.967529,672.429993 
	C669.965088,671.098816 669.968445,669.767700 669.969238,667.945251 
z"/>
<path fill="#F8BF98" opacity="1.000000" stroke="none" 
	d="
M573.719849,419.856567 
	C576.016907,418.681549 578.046875,417.104706 580.092773,417.083862 
	C599.079834,416.890289 618.069702,416.936340 637.058594,416.980011 
	C642.159729,416.991730 644.936768,419.863342 644.947205,425.055817 
	C644.984009,443.378510 645.000061,461.701355 644.947083,480.023956 
	C644.926392,487.189758 642.188538,489.919800 635.379639,489.802734 
	C622.250244,489.576965 609.121948,489.286041 595.992310,489.077942 
	C590.829895,488.996094 585.664917,489.093933 580.501526,489.054840 
	C575.371460,489.015991 572.152527,486.311737 572.119629,481.354279 
	C571.993652,462.366150 572.042480,443.376526 572.133423,424.387970 
	C572.140137,422.982086 572.997986,421.580231 573.719849,419.856567 
z"/>
<path fill="#F8BE98" opacity="1.000000" stroke="none" 
	d="
M697.000061,585.958374 
	C690.509705,585.958801 684.518188,586.028870 678.529114,585.939575 
	C672.798096,585.854248 670.018372,583.036072 670.008484,577.364258 
	C669.975952,558.727356 669.972229,540.090454 669.991943,521.453552 
	C669.998047,515.640381 672.640564,513.020569 678.507263,513.012146 
	C696.811401,512.985901 715.115540,512.977295 733.419617,513.011963 
	C740.253357,513.024902 742.048706,514.836243 742.052979,521.506409 
	C742.064758,539.976929 742.069275,558.447388 742.052307,576.917908 
	C742.046509,583.175720 739.322449,585.914551 732.943359,585.943115 
	C721.129150,585.995911 709.314453,585.958313 697.000061,585.958374 
z"/>
<path fill="#F8BE97" opacity="1.000000" stroke="none" 
	d="
M717.999817,416.960144 
	C724.163086,416.959412 729.826538,416.938904 735.489746,416.965088 
	C739.727600,416.984650 742.032593,419.128479 742.040283,423.391571 
	C742.075623,443.046600 742.101135,462.701874 742.026245,482.356659 
	C742.007263,487.337555 738.734558,489.967560 732.392883,489.893646 
	C721.928894,489.771759 711.469238,489.182983 701.005981,489.128021 
	C693.711182,489.089691 686.410645,489.557312 679.117798,489.906586 
	C673.460144,490.177612 669.998169,487.067596 669.989197,481.357330 
	C669.959473,462.368561 669.952271,443.379700 669.982117,424.390930 
	C669.990845,418.827637 671.879150,416.986938 677.523315,416.972870 
	C690.848755,416.939697 704.174377,416.961151 717.999817,416.960144 
z"/>
<path fill="#F8BE97" opacity="1.000000" stroke="none" 
	d="
M474.960083,454.000000 
	C474.959595,444.008636 474.913391,434.516998 474.975189,425.026062 
	C475.014679,418.961273 477.034088,416.987610 483.058868,416.980377 
	C501.708557,416.958008 520.358276,416.953613 539.007935,416.971283 
	C545.313782,416.977264 547.055481,418.689392 547.063171,424.917480 
	C547.086304,443.733643 547.090759,462.549866 547.057800,481.365997 
	C547.047546,487.207703 545.156799,489.056030 539.237671,489.067230 
	C524.584412,489.094971 509.930878,489.033600 495.277893,489.101562 
	C492.475769,489.114563 489.657654,489.429382 486.877960,489.823822 
	C478.728271,490.980408 474.983673,487.787933 474.963806,479.477325 
	C474.943878,471.151581 474.959869,462.825775 474.960083,454.000000 
z"/>
</svg>